<svg id="Layer_1" data-name="Layer 1" xmlns="http://www.w3.org/2000/svg" viewBox="0 0 64 64"><defs><style>.cls-1{fill:#fff;}</style></defs><title>ExpressL</title><path class="cls-1" d="M64,49.59a4.08,4.08,0,0,1-5.06-1.914L49.752,34.964,48.424,33.2,37.694,47.718c-1.226,1.746-2.512,2.506-4.8,1.888l13.74-18.444L33.842,14.5c2.2-.428,3.72-.21,5.07,1.76l9.53,12.87,9.6-12.8c1.23-1.746,2.552-2.41,4.76-1.766l-4.96,6.576-6.72,8.75a1.812,1.812,0,0,0,.046,2.65ZM.016,30.854,1.14,25.326C4.2,14.386,16.74,9.84,25.388,16.6c5.054,3.976,6.31,9.6,6.06,15.9H2.96C2.532,43.84,10.694,50.684,21.1,47.192c3.65-1.226,5.8-4.084,6.876-7.66.546-1.792,1.45-2.072,3.134-1.56-.86,4.472-2.8,8.208-6.9,10.546-6.126,3.5-14.87,2.368-19.47-2.5C2,43.2.868,39.624.36,35.8.28,35.168.12,34.566,0,33.96q.017-1.553.016-3.1Zm3-.76H28.756c-.168-8.2-5.274-14.024-12.252-14.074C8.844,15.96,3.344,21.646,3.012,30.094Z"/></svg>