<svg id="Layer_1" data-name="Layer 1" xmlns="http://www.w3.org/2000/svg" viewBox="0 0 24 24"><defs><style>.cls-1{fill:#38bdf8;}</style></defs><title>TailwindCss</title><path class="cls-1" d="M18.5,9.51a4.219,4.219,0,0,1-1.91-1.34A5.768,5.768,0,0,0,12,6a4.719,4.719,0,0,0-5,4,3.23,3.23,0,0,1,3.5-1.49,4.318,4.318,0,0,1,1.91,1.35A5.768,5.768,0,0,0,17,12a4.719,4.719,0,0,0,5-4A3.2,3.2,0,0,1,18.5,9.51Zm-13,4.98a4.219,4.219,0,0,1,1.91,1.34A5.768,5.768,0,0,0,12,18a4.719,4.719,0,0,0,5-4,3.23,3.23,0,0,1-3.5,1.49,4.318,4.318,0,0,1-1.91-1.35A5.8,5.8,0,0,0,7,12a4.719,4.719,0,0,0-5,4A3.2,3.2,0,0,1,5.5,14.49Z"/></svg>