<?xml version="1.0" encoding="utf-8" ?>
<svg xmlns="http://www.w3.org/2000/svg" xmlns:xlink="http://www.w3.org/1999/xlink" width="1024" height="1024">
	<path fill="#FEFEFE" d="M0 0L1024 0L1024 1024L0 1024L0 0Z"/>
	<path fill="#E99B43" d="M910.924 649.515C912.45 649.418 914.184 649.224 915.688 649.51C917.849 649.921 920.083 651.648 921.263 653.462C922.511 655.382 922.792 657.649 922.246 659.852C921.441 663.102 919.311 664.707 916.582 666.373C915.186 666.636 913.561 666.808 912.155 666.528C909.98 666.096 907.904 664.653 906.702 662.798Q906.447 662.399 906.235 661.976Q906.023 661.553 905.857 661.11Q905.691 660.666 905.573 660.208Q905.454 659.75 905.385 659.281Q905.316 658.813 905.297 658.34Q905.278 657.867 905.309 657.394Q905.34 656.922 905.421 656.456Q905.501 655.989 905.631 655.534C906.504 652.469 908.293 651.101 910.924 649.515Z"/>
	<path fill="#D4AFF4" d="M114.474 431.023C116.055 430.931 117.7 430.83 119.26 431.174C121.668 431.706 123.95 433.535 125.185 435.642Q125.403 436.011 125.583 436.4Q125.763 436.789 125.903 437.194Q126.044 437.599 126.143 438.016Q126.242 438.433 126.3 438.858Q126.357 439.283 126.372 439.712Q126.387 440.14 126.359 440.568Q126.331 440.995 126.26 441.418Q126.19 441.841 126.078 442.255C125.174 445.534 122.999 447.289 120.164 448.912C118.243 449.125 116.38 449.351 114.498 448.777C111.989 448.012 109.718 446.151 108.57 443.781Q108.381 443.394 108.232 442.99Q108.083 442.585 107.976 442.168Q107.868 441.751 107.802 441.325Q107.737 440.899 107.714 440.469Q107.692 440.039 107.713 439.609Q107.733 439.178 107.797 438.752Q107.861 438.326 107.967 437.908Q108.073 437.491 108.22 437.086C109.351 434.059 111.655 432.364 114.474 431.023Z"/>
	<path fill="#D8E7F6" d="M767.715 105.607C769.967 105.42 772.417 105.1 774.624 105.717C778.285 106.739 781.44 109.17 783.133 112.596C784.624 115.613 784.937 119.278 783.805 122.467C782.185 127.03 779.043 129.27 774.877 131.265C772.647 131.638 770.506 131.484 768.337 130.849C764.566 129.744 761.366 127.284 759.574 123.755Q759.285 123.197 759.054 122.613Q758.823 122.029 758.652 121.424Q758.482 120.82 758.375 120.201Q758.267 119.582 758.223 118.955Q758.179 118.329 758.199 117.701Q758.219 117.073 758.304 116.45Q758.388 115.828 758.535 115.217Q758.682 114.606 758.891 114.014C760.49 109.554 763.62 107.467 767.715 105.607Z"/>
	<path fill="#FEFEFE" d="M768.507 110.066C770.094 109.965 771.944 109.732 773.502 110.099C775.591 110.591 777.576 111.981 778.659 113.841C779.723 115.668 779.889 117.824 779.359 119.848C778.44 123.362 776.278 125.089 773.281 126.875C772.112 126.951 770.814 127.097 769.662 126.854C767.407 126.379 765.035 124.566 763.906 122.578C762.748 120.538 762.574 118.066 763.192 115.827C763.999 112.906 766.023 111.537 768.507 110.066Z"/>
	<path fill="#D18838" d="M629.964 172.064L630.826 172.14C636.735 172.699 642.194 174.683 648.22 173.504C650.429 173.071 655.297 171.253 657.198 172.465C657.001 176.703 657.034 180.895 657.144 185.136C652.22 189.912 648.848 193.988 647.671 200.99C643.662 200.892 625.065 201.862 623.132 200.623C625.359 200.467 627.684 200.599 629.922 200.593Q630.012 187.495 629.652 174.402L629.964 172.064Z"/>
	<path fill="#2A54B5" d="M209.038 637.695C213.654 638.248 218.436 638 223.082 637.971C223.128 642.835 222.866 647.919 223.335 652.752L223.419 717.525C218.616 717.959 213.84 718.203 209.041 717.591L209.038 637.695Z"/>
	<path fill="#BAB8F8" d="M174.609 183.16Q175.365 183.111 176.122 183.122Q176.879 183.134 177.633 183.206Q178.387 183.277 179.133 183.409Q179.878 183.541 180.611 183.732Q181.344 183.923 182.06 184.172Q182.775 184.42 183.468 184.725Q184.161 185.031 184.828 185.39Q185.494 185.749 186.13 186.161C190.574 189.055 193.862 193.981 194.794 199.208C195.728 204.449 194.224 209.988 191.084 214.246C187.389 219.256 182.432 221.53 176.433 222.349C172.198 222.642 167.612 221.303 164.121 218.909Q163.72 218.634 163.334 218.339Q162.948 218.044 162.577 217.73Q162.206 217.415 161.852 217.082Q161.498 216.749 161.161 216.399Q160.825 216.048 160.506 215.681Q160.188 215.313 159.889 214.93Q159.59 214.547 159.311 214.149Q159.032 213.751 158.774 213.34Q158.515 212.928 158.278 212.503Q158.041 212.079 157.826 211.643Q157.611 211.207 157.419 210.761Q157.227 210.314 157.057 209.859Q156.888 209.403 156.742 208.94Q156.596 208.476 156.474 208.005Q156.353 207.535 156.255 207.059Q156.157 206.583 156.084 206.102Q156.008 205.611 155.956 205.117Q155.904 204.624 155.877 204.128Q155.85 203.632 155.847 203.135Q155.844 202.639 155.866 202.143Q155.888 201.647 155.934 201.152Q155.98 200.658 156.051 200.166Q156.121 199.675 156.216 199.187Q156.311 198.7 156.43 198.218Q156.548 197.736 156.691 197.26Q156.833 196.784 156.999 196.316Q157.165 195.848 157.353 195.389Q157.542 194.93 157.753 194.48Q157.964 194.031 158.197 193.592Q158.43 193.154 158.685 192.727Q158.939 192.301 159.215 191.888Q159.49 191.474 159.785 191.075C163.53 186.115 168.602 183.899 174.609 183.16Z"/>
	<path fill="#FEFEFE" d="M172.47 192.095C174.309 191.966 176.397 191.793 178.195 192.244C180.739 192.882 183.081 194.767 184.36 197.041C185.866 199.716 186.079 203.005 185.102 205.895C183.85 209.595 181.468 211.446 178.108 213.159C176.178 213.345 174.382 213.423 172.497 212.872Q171.973 212.713 171.467 212.503Q170.961 212.293 170.479 212.033Q169.996 211.773 169.542 211.466Q169.088 211.159 168.668 210.808Q168.247 210.458 167.863 210.067Q167.479 209.675 167.137 209.248Q166.794 208.82 166.496 208.361Q166.198 207.901 165.947 207.414Q165.695 206.915 165.496 206.392Q165.297 205.869 165.153 205.329Q165.01 204.788 164.923 204.236Q164.836 203.683 164.807 203.125Q164.778 202.566 164.808 202.008Q164.837 201.449 164.924 200.897Q165.011 200.344 165.155 199.804Q165.299 199.264 165.498 198.741C166.834 195.269 169.227 193.628 172.47 192.095Z"/>
	<path fill="#2A54B5" d="M208.561 405.682C213.513 404.012 217.946 401.577 222.453 398.962Q222.316 413.558 222.366 428.154C221.688 438.127 222.182 448.434 222.17 458.441C222.149 476.413 222.03 494.398 222.254 512.369C217.66 512.266 213.059 512.076 208.473 512.422L208.561 405.682Z"/>
	<path fill="#D8E7F6" d="M647.287 281.008C648.729 297.189 647.924 314.699 648.003 331.021L620.45 331.058L614.042 331.062C614.007 325.147 613.848 288.004 614.922 284.261Q619.734 284.385 624.548 284.372C631.783 283.821 639.048 284.389 646.284 283.87C647.363 282.986 647.128 282.332 647.287 281.008Z"/>
	<path fill="#93B8F5" d="M614.922 284.261Q619.734 284.385 624.548 284.372C623.248 299.828 622.6 315.711 620.45 331.058L614.042 331.062C614.007 325.147 613.848 288.004 614.922 284.261Z"/>
	<path fill="#7A8BB6" d="M298.573 822.49L298.977 822.529L298.93 871.122Q315.454 871.106 331.977 871.291Q332.607 896.1 332.357 920.916L411.477 920.855C423.5 920.849 438.334 919.894 450.113 921.083C440.849 921.94 431.029 921.314 421.715 921.327L365.214 921.377L299.044 921.319C286.623 921.289 273.916 921.813 261.545 920.816C269.724 919.23 278.393 914.532 284.415 908.806C300.267 893.734 298.541 877.66 298.484 857.813C298.451 846.051 298.231 834.247 298.573 822.49Z"/>
	<path fill="#D8E7F6" d="M655.313 345.015L712.588 344.983L712.516 369.863C712.512 374.743 712.154 380.229 712.93 385.038C713.109 389.791 713.436 396.368 717.153 399.822C717.27 399.931 717.405 400.019 717.532 400.117L717.493 400.706C715.242 400.824 713.004 401.052 710.749 401.135C700.813 401.498 677.305 402.23 668.393 400.144C665.433 399.451 662.632 398.201 660.442 396.048C658.091 393.737 656.665 390.694 655.997 387.492C654.86 382.04 655.33 375.976 655.325 370.421L655.313 345.015Z"/>
	<path fill="#F15B6C" d="M873.985 138.209C881.232 138.249 887.68 140.09 893.64 144.236C900.438 148.964 904.866 155.915 906.266 164.098Q906.41 164.95 906.513 165.807Q906.616 166.665 906.677 167.526Q906.738 168.388 906.757 169.251Q906.776 170.115 906.753 170.978Q906.73 171.841 906.665 172.703Q906.6 173.564 906.493 174.421Q906.386 175.278 906.238 176.129Q906.089 176.979 905.9 177.822Q905.71 178.665 905.479 179.497Q905.249 180.329 904.978 181.15Q904.707 181.97 904.397 182.776Q904.087 183.582 903.738 184.372Q903.388 185.162 903.001 185.934Q902.614 186.706 902.19 187.458Q901.765 188.21 901.305 188.941Q900.844 189.672 900.349 190.379C894.426 198.724 886.352 202.876 876.429 204.527C868.063 204.703 859.997 202.733 853.448 197.282C846.85 191.789 843.167 183.706 842.391 175.239C841.539 165.94 844.227 156.89 850.298 149.753C856.586 142.36 864.468 139.047 873.985 138.209Z"/>
	<path fill="#FEFEFE" d="M893.427 153.929C894.615 153.84 895.788 153.889 896.835 154.561C897.728 155.133 898.24 156.026 898.256 157.085C898.285 159.016 896.672 161.216 895.549 162.66C892.197 166.968 887.655 170.671 883.785 174.523C879.008 179.28 874.489 184.491 869.234 188.712C865.568 186.004 862.51 182.732 859.453 179.374C857.374 177.13 855.292 174.989 854.569 171.903C854.201 170.333 854.371 169.373 855.185 168.012C856.012 167.634 856.455 167.533 857.389 167.615C862.067 168.026 866.223 174.396 868.949 177.815C874.816 171.591 887.073 158.379 893.427 153.929Z"/>
	<path fill="#FBBB62" d="M602.942 207.819C602.103 207.622 601.176 207.404 600.404 207.017C599.343 206.485 598.289 205.261 597.985 204.114C597.802 203.425 598.096 203.158 598.379 202.563C603.513 198.784 616.666 200.516 623.132 200.623C625.065 201.862 643.662 200.892 647.671 200.99L647.528 204.728C646.707 223.152 647.003 241.708 647.034 260.151L647.07 266.379L647.064 276.514L647.287 281.008C647.128 282.332 647.363 282.986 646.284 283.87C639.048 284.389 631.783 283.821 624.548 284.372Q619.734 284.385 614.922 284.261C613.89 283.278 612.978 281.893 612.084 280.767C608.839 280.633 605.087 281.692 602.16 280.108C601.317 278.448 601.627 277.344 601.735 275.507C601.959 272.778 601.996 270.209 601.853 267.475L600.835 267.412C601.51 266.565 601.469 265.789 601.639 264.74L600.548 264.058L601.534 263.517L601.562 255.771Q601.604 250.154 601.51 244.538C599.967 244.601 598.294 244.765 596.757 244.632C595.577 244.53 594.82 244.024 594.017 243.176C594.037 242.207 593.837 242.39 594.441 241.799C596.405 239.879 599.425 240.358 601.962 240.382L601.993 235.291C602.191 232.804 602.993 230.268 602.272 227.822C601.242 226.648 600.724 226.807 599.219 226.569Q594.35 226.519 589.484 226.673L589.186 223.64C593.299 222.666 597.901 222.969 602.117 222.911C602.08 219.208 601.943 215.493 602.462 211.816C602.898 210.363 603.152 209.365 602.942 207.819Z"/>
	<path fill="#EDC89B" d="M602.942 207.819C606.052 207.078 609.671 207.38 612.871 207.375C612.844 209.033 613.158 209.926 612.044 211.202C609.115 212.383 605.594 211.608 602.462 211.816C602.898 210.363 603.152 209.365 602.942 207.819Z"/>
	<path fill="#EDC89B" d="M608.639 245.911C609.898 246.557 610.922 246.723 611.397 248.163C612.278 250.828 612.549 257.946 611.258 260.378C610.997 260.871 610.596 261.055 610.144 261.392C609.291 261.295 608.701 261.108 607.922 260.749C607.008 259.065 607.423 256.904 607.531 255.047C607.719 252.282 607.39 248.393 608.639 245.911Z"/>
	<path fill="#E99B43" d="M601.562 255.771C601.722 254.347 601.938 253.097 602.328 251.719L602.944 251.48L603.441 251.977C604.777 253.295 605.843 254.227 607.531 255.047C607.423 256.904 607.008 259.065 607.922 260.749C608.701 261.108 609.291 261.295 610.144 261.392L609.974 262.004C607.157 262.913 604.33 262.287 601.534 263.517L601.562 255.771Z"/>
	<path fill="#EDC89B" d="M607.461 227.184C609.134 227.126 609.967 226.797 611.343 227.808C612.537 231.353 612.294 236.248 611.726 239.952L610.927 240.194C608.289 241.138 604.661 240.965 601.962 240.382L601.993 235.291L602.694 234.297C604.471 233.667 605.92 233.024 607.46 231.931C607.595 230.382 607.48 228.743 607.461 227.184Z"/>
	<path fill="#D18838" d="M601.993 235.291L602.694 234.297C604.471 233.667 605.92 233.024 607.46 231.931C607.355 234.437 606.758 237.643 608.13 239.818C609.113 240.214 609.876 240.204 610.927 240.194C608.289 241.138 604.661 240.965 601.962 240.382L601.993 235.291Z"/>
	<path fill="#E99B43" d="M611.726 239.952C615.475 239.12 623.536 237.831 626.993 239.757C627.502 240.04 627.759 240.367 628.135 240.772C628.314 242.226 628.2 242.398 627.553 243.731C624.505 246.307 611.806 244.345 607.627 244.354C605.558 244.251 603.57 244.379 601.51 244.538C599.967 244.601 598.294 244.765 596.757 244.632C595.577 244.53 594.82 244.024 594.017 243.176C594.037 242.207 593.837 242.39 594.441 241.799C596.405 239.879 599.425 240.358 601.962 240.382C604.661 240.965 608.289 241.138 610.927 240.194L611.726 239.952Z"/>
	<path fill="#E99B43" d="M602.117 222.911C607.237 222.192 623.231 219.977 627.259 222.528C627.897 223.93 628.07 223.942 627.618 225.387C622.809 229.243 610.783 226.026 604.658 226.805C602.78 226.53 601.112 226.414 599.219 226.569Q594.35 226.519 589.484 226.673L589.186 223.64C593.299 222.666 597.901 222.969 602.117 222.911Z"/>
	<path fill="#E99B43" d="M601.639 264.74C605.783 263.912 610.119 264.464 614.221 263.283C613.628 262.78 613.938 262.983 613.095 262.589C612.181 262.162 612.264 261.971 611.803 261.112L612.219 260.299C620.34 258.683 638.071 260.011 647.034 260.151L647.07 266.379C638.372 266.387 619.302 265.407 611.617 266.997C608.36 267.005 605.06 266.848 601.853 267.475L600.835 267.412C601.51 266.565 601.469 265.789 601.639 264.74Z"/>
	<path fill="#E99B43" d="M602.942 207.819C602.103 207.622 601.176 207.404 600.404 207.017C599.343 206.485 598.289 205.261 597.985 204.114C597.802 203.425 598.096 203.158 598.379 202.563C603.513 198.784 616.666 200.516 623.132 200.623C625.065 201.862 643.662 200.892 647.671 200.99L647.528 204.728L646.805 206.973C643.466 208.588 618.681 207.176 612.871 207.375C609.671 207.38 606.052 207.078 602.942 207.819Z"/>
	<path fill="#FBBB62" d="M647.07 266.379L647.064 276.514L647.287 281.008C647.128 282.332 647.363 282.986 646.284 283.87C639.048 284.389 631.783 283.821 624.548 284.372Q619.734 284.385 614.922 284.261C613.89 283.278 612.978 281.893 612.084 280.767C608.839 280.633 605.087 281.692 602.16 280.108C601.317 278.448 601.627 277.344 601.735 275.507C601.959 272.778 601.996 270.209 601.853 267.475C605.06 266.848 608.36 267.005 611.617 266.997C619.302 265.407 638.372 266.387 647.07 266.379Z"/>
	<path fill="#EDC89B" d="M601.853 267.475C605.06 266.848 608.36 267.005 611.617 266.997L611.529 267.442C611.652 269.977 612.285 273.654 610.896 275.858C610.035 276.123 609.416 276.178 608.517 276.14L608.189 275.828C606.13 275.399 603.838 275.544 601.735 275.507C601.959 272.778 601.996 270.209 601.853 267.475Z"/>
	<path fill="#FEFEFE" d="M608.189 275.828C608.432 273.277 607.643 270.803 608.342 268.304C609.487 267.199 609.98 267.469 611.529 267.442C611.652 269.977 612.285 273.654 610.896 275.858C610.035 276.123 609.416 276.178 608.517 276.14L608.189 275.828Z"/>
	<path fill="#E99B43" d="M601.735 275.507C603.838 275.544 606.13 275.399 608.189 275.828L608.517 276.14C612.821 277.514 640.571 276.535 647.064 276.514L647.287 281.008C647.128 282.332 647.363 282.986 646.284 283.87C639.048 284.389 631.783 283.821 624.548 284.372Q619.734 284.385 614.922 284.261C613.89 283.278 612.978 281.893 612.084 280.767C608.839 280.633 605.087 281.692 602.16 280.108C601.317 278.448 601.627 277.344 601.735 275.507Z"/>
	<path fill="#FBBB62" d="M629.964 172.064C624.27 171.546 617.275 165.421 613.761 161.192C607.769 153.98 604.245 143.745 605.143 134.359C606.071 124.653 611.488 115.176 619.049 109.09Q619.777 108.509 620.534 107.965Q621.29 107.421 622.072 106.915Q622.855 106.41 623.661 105.943Q624.468 105.477 625.297 105.052Q626.125 104.626 626.974 104.242Q627.823 103.858 628.69 103.517Q629.557 103.176 630.44 102.879Q631.322 102.581 632.219 102.327Q633.115 102.074 634.023 101.866Q634.931 101.657 635.848 101.494Q636.766 101.331 637.69 101.213Q638.614 101.096 639.543 101.025Q640.472 100.954 641.403 100.929Q642.334 100.904 643.266 100.925Q644.197 100.946 645.126 101.014Q646.055 101.081 646.98 101.195C656.757 102.367 666.245 107.56 672.308 115.347C678.35 123.107 681.592 133.838 680.265 143.632C679.077 152.402 674.109 161.111 666.943 166.37C663.884 168.615 660.126 170.091 657.198 172.465C655.297 171.253 650.429 173.071 648.22 173.504C642.194 174.683 636.735 172.699 630.826 172.14L629.964 172.064Z"/>
	<path fill="#D18838" d="M646.272 159.554L646.96 160.083L647.133 161.501C646.851 162.028 646.304 162.574 645.85 162.938C643.91 164.493 641.287 164.051 639.096 163.511C638.459 162.546 638.313 162.531 638.241 161.311C639.799 160.105 643.61 161.051 646.272 159.554Z"/>
	<path fill="#D18838" d="M656.389 139.054C657.178 139.002 657.972 138.954 658.763 138.985C660.967 139.072 663.098 140.035 664.503 141.762C665.582 143.09 666.038 144.751 665.831 146.446C665.452 149.543 663.585 151.061 661.198 152.796C659.997 152.998 658.594 153.172 657.395 152.926C655.541 152.545 653.832 151.304 652.851 149.696C651.812 147.992 651.596 145.856 652.115 143.941C652.779 141.493 654.325 140.341 656.389 139.054Z"/>
	<path fill="#D18838" d="M626.51 139.003C627.37 139.048 628.25 139.089 629.098 139.25C630.962 139.602 632.73 140.795 633.794 142.358Q633.992 142.651 634.158 142.963Q634.324 143.275 634.456 143.603Q634.588 143.931 634.684 144.271Q634.78 144.611 634.839 144.959Q634.898 145.308 634.92 145.661Q634.942 146.014 634.925 146.367Q634.909 146.72 634.856 147.069Q634.802 147.418 634.711 147.76C633.946 150.743 632.092 152.025 629.512 153.426C628.358 153.473 627.104 153.419 625.986 153.094C624.156 152.563 622.511 151.203 621.622 149.524C620.726 147.83 620.609 145.869 621.212 144.057C622.094 141.403 624.095 140.13 626.51 139.003Z"/>
	<path fill="#C7D3E8" d="M913.36 498.197Q914.239 498.122 915.121 498.087Q916.002 498.052 916.884 498.055Q917.767 498.059 918.648 498.102Q919.529 498.145 920.408 498.226Q921.286 498.308 922.16 498.429Q923.034 498.55 923.902 498.709Q924.77 498.868 925.63 499.066Q926.49 499.263 927.34 499.499Q928.19 499.734 929.029 500.007Q929.868 500.28 930.694 500.59Q931.52 500.9 932.332 501.247Q933.143 501.593 933.939 501.975Q934.734 502.357 935.511 502.773Q936.289 503.19 937.048 503.641Q937.806 504.092 938.544 504.576Q939.281 505.06 939.997 505.576C948.458 511.584 955.077 521.106 956.684 531.463Q956.84 532.502 956.945 533.547Q957.05 534.592 957.103 535.641Q957.157 536.69 957.159 537.74Q957.16 538.791 957.111 539.84Q957.061 540.889 956.96 541.934Q956.859 542.98 956.707 544.019Q956.554 545.058 956.351 546.089Q956.148 547.12 955.895 548.139Q955.641 549.158 955.338 550.164Q955.035 551.17 954.683 552.159Q954.331 553.149 953.931 554.12Q953.53 555.091 953.083 556.041Q952.635 556.992 952.142 557.919Q951.648 558.846 951.11 559.748Q950.571 560.65 949.989 561.524Q949.407 562.398 948.783 563.243C941.838 572.624 931.401 577.348 920.115 578.972C909.77 579.316 900.211 576.845 892 570.36C883.476 563.627 877.403 553.178 876.268 542.33C875.21 532.214 878.427 520.809 884.855 512.892C892.001 504.089 902.229 499.375 913.36 498.197Z"/>
	<path fill="#FEFEFE" d="M882.216 541.218Q895.97 543.946 909.901 545.543C910.957 554.766 912.369 563.707 914.371 572.774C909.317 571.874 904.416 570.351 899.996 567.699C889.959 561.677 885.039 552.22 882.216 541.218Z"/>
	<path fill="#FEFEFE" d="M948.793 542.181L950.518 541.903L951 542.481C950.502 546.576 949.113 550.617 947.142 554.236C941.411 564.761 932.492 569.569 921.352 572.769L919.283 572.831C919.162 572.633 918.946 572.466 918.92 572.235C918.821 571.37 919.492 569.29 919.667 568.358C921.094 560.765 922.218 553.303 922.55 545.568C931.372 544.911 940.063 543.567 948.793 542.181Z"/>
	<path fill="#FEFEFE" d="M918.193 504.53C924.501 505.316 930.325 507.119 935.676 510.612C945.14 516.791 949.373 525.939 951.67 536.68C942.473 534.172 932.422 533.651 922.95 532.943C921.981 523.24 920.146 514.058 918.193 504.53Z"/>
	<path fill="#FEFEFE" d="M912.095 504.583C913.057 504.443 913.211 504.458 914.197 504.776C914.337 509.108 912.681 514.282 911.913 518.608C911.063 523.396 910.459 528.193 909.904 533.023C901.521 533.778 893.423 534.956 885.171 536.571C883.898 536.698 883.619 536.997 882.527 536.244C882.189 531.133 884.676 524.886 887.376 520.614C893.178 511.435 901.8 506.973 912.095 504.583Z"/>
	<path fill="#2A54B5" d="M686.882 174.951C693.956 173.876 701.759 174.507 708.927 174.505L749.939 174.5L790.456 174.443C797.572 174.432 805.2 173.881 812.249 174.807C818.694 175.653 824.691 177.85 829.959 181.701C837.608 187.293 843.245 196.259 844.618 205.669C845.332 210.566 845.098 215.685 845.054 220.619C805.846 220.038 766.584 220.678 727.367 220.473C726.291 216.285 722.144 211.512 719.911 207.703C713.601 196.937 707.15 186.152 701.34 175.11C696.524 175.145 691.69 175.272 686.882 174.951Z"/>
	<path fill="#FEFEFE" d="M723.657 192.472C723.978 192.505 724.3 192.527 724.62 192.569C726.865 192.867 728.777 193.64 730.05 195.587C730.942 196.953 731.16 198.612 730.777 200.181C730.113 202.908 728.32 204.307 725.984 205.61C724.911 205.578 724.056 205.53 723.013 205.224C721.308 204.722 719.735 203.299 718.953 201.721C718.225 200.254 718.189 198.522 718.707 196.981C719.56 194.444 721.368 193.565 723.657 192.472Z"/>
	<path fill="#D8E7F6" d="M654.771 234.106L658.796 233.926L659.866 240.493Q687.298 240.844 714.733 240.84C724.036 240.859 733.94 240.173 743.167 241.076C736.87 241.585 730.448 241.367 724.132 241.328C724.353 244.796 724.372 248.441 724.923 251.864C718.686 256.684 714.271 262.09 713.217 270.225C712.561 275.294 712.884 280.702 712.911 285.818C713.419 304.106 712.932 322.477 712.995 340.777C713.045 355.365 713.821 370.504 712.93 385.038C712.154 380.229 712.512 374.743 712.516 369.863L712.588 344.983L655.313 345.015C654.215 336.971 654.933 324.596 654.929 316.152L654.969 258.252C654.999 250.415 655.839 241.863 654.771 234.106Z"/>
	<path fill="#BAB8F8" d="M712.597 330.99C712.45 316.047 712.023 300.728 712.911 285.818C713.419 304.106 712.932 322.477 712.995 340.777C713.045 355.365 713.821 370.504 712.93 385.038C712.154 380.229 712.512 374.743 712.516 369.863L712.588 344.983L655.313 345.015C655.801 340.37 655.52 335.551 655.488 330.882Q684.043 330.743 712.597 330.99Z"/>
	<path fill="#BAB8F8" d="M653.207 220.462C653.105 219.838 653.075 219.724 653.023 218.999C652.199 207.333 653.894 196.728 661.989 187.815C668.243 180.928 677.414 175.337 686.882 174.951C691.69 175.272 696.524 175.145 701.34 175.11C707.15 186.152 713.601 196.937 719.911 207.703C722.144 211.512 726.291 216.285 727.367 220.473C766.584 220.678 805.846 220.038 845.054 220.619L845.03 256.107C874.277 256.278 903.654 255.456 932.879 256.18C931.092 257.428 792.823 256.46 776.526 256.428C775.391 252.911 773.315 250.542 771.03 247.695C761.253 247.933 742.855 246.755 734.289 248.483C730.838 248.803 727.931 250.265 724.923 251.864C724.372 248.441 724.353 244.796 724.132 241.328C730.448 241.367 736.87 241.585 743.167 241.076C733.94 240.173 724.036 240.859 714.733 240.84Q687.298 240.844 659.866 240.493L658.796 233.926L654.771 234.106C652.365 231.447 653.64 224.127 653.207 220.462Z"/>
	<path fill="#FEFEFE" d="M658.796 233.926C695.215 233.045 731.855 233.697 768.287 233.89L805.719 234.016C812.662 234.017 819.781 233.662 826.692 234.164C828.363 234.286 830.011 234.326 831.231 235.628C831.829 236.267 831.687 236.678 831.754 237.497C831.061 239.065 830.315 239.979 828.699 240.672C827.918 241.007 827.092 241.17 826.246 241.212C822.1 241.418 817.812 241.086 813.648 241.074L783.378 241.046C770.643 241.045 755.529 241.908 743.167 241.076C733.94 240.173 724.036 240.859 714.733 240.84Q687.298 240.844 659.866 240.493L658.796 233.926Z"/>
	<path fill="#0B288E" d="M653.207 220.462C653.105 219.838 653.075 219.724 653.023 218.999C652.199 207.333 653.894 196.728 661.989 187.815C668.243 180.928 677.414 175.337 686.882 174.951C691.69 175.272 696.524 175.145 701.34 175.11C707.15 186.152 713.601 196.937 719.911 207.703C722.144 211.512 726.291 216.285 727.367 220.473C702.665 220.802 677.914 220.469 653.207 220.462Z"/>
	<path fill="#FEFEFE" d="M699.04 192.555C700.306 192.46 701.869 192.226 703.108 192.558C704.837 193.021 706.534 194.143 707.402 195.753C708.182 197.199 708.407 198.664 707.965 200.244C707.283 202.687 705.774 203.91 703.679 205.167C702.726 205.312 701.835 205.394 700.875 205.296C699.008 205.106 697.348 204.295 696.215 202.764C695.2 201.392 694.897 199.633 695.185 197.969C695.628 195.414 697.057 194.069 699.04 192.555Z"/>
	<path fill="#FEFEFE" d="M677.466 191.988C678.171 192.025 678.86 192.086 679.552 192.235C681.848 192.728 683.768 193.988 684.981 196.029Q685.133 196.283 685.259 196.55Q685.385 196.817 685.483 197.096Q685.581 197.375 685.651 197.662Q685.721 197.949 685.761 198.242Q685.802 198.535 685.813 198.83Q685.824 199.126 685.805 199.421Q685.787 199.716 685.739 200.007Q685.69 200.299 685.613 200.584C684.925 203.147 683.265 204.22 681.041 205.416C680.079 205.448 679.119 205.507 678.169 205.313C676.283 204.93 674.679 203.893 673.622 202.275C672.58 200.68 672.363 198.736 672.901 196.919C673.656 194.366 675.246 193.257 677.466 191.988Z"/>
	<path fill="#D8E7F6" d="M819.903 493.969C825.797 503.486 832.359 512.635 837.76 522.449C860.794 564.306 873.603 610.473 871.831 658.462C871.244 674.35 869.014 690.033 866.491 705.712C869.054 705.514 871.557 705.214 874.109 705.644C868.648 706.504 862.439 706.032 856.894 706.025Q842.536 705.974 828.178 706.087C825.289 705.969 822.371 706.025 819.478 706L819.616 565.795L819.707 519.542C819.714 511.068 819.31 502.418 819.903 493.969Z"/>
	<path fill="#D8E7F6" d="M484.357 150.213C523.937 144.397 559.759 146.879 597.48 160.822C604.322 163.352 610.917 166.451 617.559 169.455C621.25 171.125 625.696 173.615 629.652 174.402Q630.012 187.495 629.922 200.593C627.684 200.599 625.359 200.467 623.132 200.623C616.666 200.516 603.513 198.784 598.379 202.563C598.096 203.158 597.802 203.425 597.985 204.114C598.289 205.261 599.343 206.485 600.404 207.017C601.176 207.404 602.103 207.622 602.942 207.819C603.152 209.365 602.898 210.363 602.462 211.816C601.943 215.493 602.08 219.208 602.117 222.911C597.901 222.969 593.299 222.666 589.186 223.64C587.113 222.249 583.662 221.494 581.239 220.69C574.17 218.344 567.081 215.902 559.929 213.822C555.205 212.448 549.61 211.636 545.239 209.43L544.749 207.833C544.57 209.74 544.391 211.442 543.767 213.259C542.519 214.629 541.317 215.899 539.575 216.629C537.117 217.659 534.339 217.75 531.885 216.675C528.889 215.364 527.666 213.159 526.537 210.231C519.23 210.105 489.649 208.049 484.849 209.813C484.727 210.851 484.773 212.528 484.195 213.376L484.127 210.224L484.123 173.499C484.128 166.278 483.904 158.953 484.411 151.753L484.357 150.213Z"/>
	<path fill="#93B8F5" d="M484.127 210.224L484.123 173.499C484.128 166.278 483.904 158.953 484.411 151.753C485.357 169.385 484.586 187.371 484.573 205.051Q505.918 204.352 527.254 205.282C526.917 206.927 526.505 208.542 526.537 210.231C519.23 210.105 489.649 208.049 484.849 209.813C484.727 210.851 484.773 212.528 484.195 213.376L484.127 210.224Z"/>
	<path fill="#4B6AA5" d="M527.254 205.282C529.368 202.552 531.057 200.705 534.637 200.294C537.234 199.997 539.69 200.821 541.645 202.558C543.214 203.952 544.114 205.866 544.749 207.833C544.57 209.74 544.391 211.442 543.767 213.259C542.519 214.629 541.317 215.899 539.575 216.629C537.117 217.659 534.339 217.75 531.885 216.675C528.889 215.364 527.666 213.159 526.537 210.231C526.505 208.542 526.917 206.927 527.254 205.282Z"/>
	<path fill="#28B1F2" d="M531.342 211.065C530.951 209.136 530.765 207.482 531.804 205.712C532.456 204.601 533.492 203.789 534.801 203.627C536.855 203.374 538.183 204.438 539.619 205.694C540.304 207.193 540.848 208.708 540.154 210.351C539.562 211.756 538.218 212.538 536.797 212.872C535.278 213.229 533.801 212.92 532.502 212.066C532.033 211.757 531.735 211.443 531.342 211.065Z"/>
	<path fill="#7A8BB6" d="M614.11 871.579L749.229 871.495C748.615 880.12 747.919 895.084 750.067 903.189Q750.44 904.593 750.973 905.945Q751.505 907.297 752.191 908.578Q752.876 909.859 753.704 911.053Q754.533 912.246 755.494 913.336C758.899 917.198 763.206 919.58 768.115 920.956C754.964 921.585 741.696 921.38 728.528 921.396L665.995 921.421L610.265 921.456C599.025 921.452 587.617 921.78 576.401 921.086L543.654 921.083Q542.653 913.218 542.62 905.29C540.992 898.621 540.261 890.175 543.581 883.93C547.165 877.19 554.273 874.175 561.213 872.16C567.597 871.388 574.266 871.668 580.686 871.674Q597.398 871.802 614.11 871.579Z"/>
	<path fill="#2A54B5" d="M542.62 905.29C551.619 907.095 568.214 906.008 578.068 906.011L651.909 905.971C658.911 905.943 671.79 904.973 678.237 906.079C679.369 906.273 680 906.72 680.617 907.689C682.577 910.768 681.873 917.414 681.874 921.039L612.12 920.947C600.337 920.94 588.119 920.181 576.401 921.086L543.654 921.083Q542.653 913.218 542.62 905.29Z"/>
	<path fill="#4B6AA5" d="M409.231 871.579C416.454 873.138 428.89 872.034 436.442 871.47C447.803 871.99 459.244 871.695 470.616 871.672L526.663 871.518C535.595 871.481 553.331 870.274 561.213 872.16C554.273 874.175 547.165 877.19 543.581 883.93C540.261 890.175 540.992 898.621 542.62 905.29Q542.653 913.218 543.654 921.083C512.49 921.192 481.274 921.447 450.113 921.083C438.334 919.894 423.5 920.849 411.477 920.855L332.357 920.916Q332.607 896.1 331.977 871.291C357.709 871.963 383.493 871.051 409.231 871.579Z"/>
	<defs>
		<linearGradient id="gradient_0" gradientUnits="userSpaceOnUse" x1="155.27512" y1="405.69702" x2="209.46179" y2="267.69968">
			<stop offset="0" stop-color="#EF8B25"/>
			<stop offset="1" stop-color="#FCC381"/>
		</linearGradient>
	</defs>
	<path fill="url(#gradient_0)" d="M163.39 265.719Q165.061 265.175 166.757 264.715Q168.452 264.255 170.169 263.88Q171.886 263.505 173.619 263.216Q175.352 262.928 177.097 262.726Q178.843 262.524 180.596 262.409Q182.35 262.294 184.107 262.267Q185.863 262.24 187.619 262.301Q189.375 262.362 191.126 262.51Q192.877 262.658 194.618 262.893Q196.36 263.129 198.087 263.45Q199.814 263.772 201.524 264.18Q203.233 264.588 204.919 265.08Q206.606 265.572 208.266 266.148Q209.926 266.724 211.555 267.382Q213.185 268.04 214.779 268.779Q216.373 269.517 217.929 270.334C231.507 277.405 245.641 290.574 250.675 305.413C253.985 311.256 255.205 317.898 256.331 324.43C256.665 326.371 256.797 328.615 257.401 330.47L257.48 330.849C257.451 335.653 257.638 340.565 256.898 345.322C256.009 349.574 255.356 354.041 254.09 358.193C249.251 374.068 237.564 389.856 223.275 398.496C223.006 398.659 222.727 398.807 222.453 398.962C217.946 401.577 213.513 404.012 208.561 405.682C205.827 406.664 203.068 407.643 200.276 408.447Q198.545 408.942 196.792 409.351Q195.038 409.759 193.267 410.08Q191.495 410.401 189.71 410.634Q187.925 410.867 186.13 411.012Q184.335 411.156 182.536 411.211Q180.736 411.266 178.936 411.232Q177.136 411.198 175.34 411.074Q173.544 410.951 171.756 410.739Q169.968 410.527 168.193 410.226Q166.418 409.925 164.66 409.537Q162.902 409.149 161.165 408.674Q159.428 408.199 157.718 407.639Q156.007 407.079 154.325 406.434Q152.644 405.79 150.997 405.063Q149.35 404.336 147.741 403.528Q146.132 402.72 144.565 401.834Q142.994 400.97 141.468 400.028Q139.942 399.086 138.465 398.069Q136.989 397.051 135.565 395.961Q134.142 394.87 132.775 393.71Q131.407 392.549 130.1 391.322Q128.793 390.094 127.55 388.802Q126.306 387.51 125.129 386.158Q123.952 384.805 122.844 383.395Q121.736 381.985 120.701 380.521Q119.665 379.056 118.705 377.542Q117.744 376.028 116.861 374.468Q115.978 372.907 115.174 371.304Q114.37 369.701 113.648 368.06Q112.926 366.418 112.287 364.743Q111.648 363.067 111.094 361.362Q110.54 359.656 110.073 357.925Q109.597 356.151 109.209 354.355Q108.821 352.559 108.522 350.747Q108.223 348.934 108.015 347.109Q107.806 345.283 107.688 343.45Q107.57 341.617 107.542 339.78Q107.515 337.943 107.579 336.107Q107.642 334.271 107.797 332.44Q107.951 330.609 108.196 328.789Q108.441 326.968 108.775 325.161Q109.11 323.355 109.533 321.567Q109.956 319.78 110.468 318.015Q110.979 316.25 111.577 314.513Q112.175 312.776 112.858 311.071Q113.542 309.366 114.308 307.696Q115.075 306.027 115.924 304.397Q116.772 302.768 117.7 301.182Q118.628 299.577 119.632 298.02Q120.636 296.462 121.715 294.954Q122.793 293.446 123.943 291.993Q125.093 290.539 126.312 289.142Q127.531 287.746 128.815 286.41Q130.1 285.074 131.448 283.801Q132.796 282.529 134.203 281.323Q135.611 280.117 137.075 278.98Q138.54 277.844 140.057 276.779Q141.575 275.715 143.142 274.725Q144.709 273.735 146.322 272.822Q147.935 271.909 149.59 271.074Q151.245 270.24 152.939 269.487Q154.633 268.734 156.361 268.063Q158.089 267.393 159.847 266.806Q161.605 266.22 163.39 265.719Z"/>
	<path fill="#FBBB62" d="M163.39 265.719Q165.061 265.175 166.757 264.715Q168.452 264.255 170.169 263.88Q171.886 263.505 173.619 263.216Q175.352 262.928 177.097 262.726Q178.843 262.524 180.596 262.409Q182.35 262.294 184.107 262.267Q185.863 262.24 187.619 262.301Q189.375 262.362 191.126 262.51Q192.877 262.658 194.618 262.893Q196.36 263.129 198.087 263.45Q199.814 263.772 201.524 264.18Q203.233 264.588 204.919 265.08Q206.606 265.572 208.266 266.148Q209.926 266.724 211.555 267.382Q213.185 268.04 214.779 268.779Q216.373 269.517 217.929 270.334C231.507 277.405 245.641 290.574 250.675 305.413L250.415 305.538L249.912 305.263C249.344 303.931 248.744 302.602 248.035 301.338C241.156 289.078 232.381 279.86 220.25 272.746C218.089 271.479 214.757 269.421 212.286 269.026C211.07 268.832 210.461 269.825 209.669 270.574C204.805 270.44 195.231 272.177 191.161 271.103C186.2 266.658 185.155 269.629 180.011 268.252C179.074 268.001 178.192 266.597 177.075 266.614C174.397 266.655 172.682 268.401 169.956 267.301L169.671 266.611C170.355 266.027 171.033 265.442 171.697 264.835C169.253 264.212 166.827 266.272 164.264 265.885C163.971 265.841 163.682 265.775 163.39 265.719Z"/>
	<path fill="#FEFEFE" d="M202.165 316.975C204.578 316.885 206.955 317.386 209.046 318.651C210.462 319.508 211.31 320.749 211.59 322.372C212.12 325.448 210.683 328.445 208.932 330.873C205.491 335.643 183.314 357.82 178.284 361.539C176.239 363.051 174.208 364.248 171.687 364.691C165.321 363.316 159.896 356.618 155.382 352.205C152.211 349.559 146.611 345.931 145.684 341.754C145.246 339.781 145.679 337.819 146.782 336.14Q147.038 335.749 147.333 335.387Q147.629 335.025 147.961 334.696Q148.294 334.367 148.659 334.076Q149.024 333.784 149.418 333.533Q149.812 333.281 150.23 333.073Q150.649 332.864 151.087 332.701Q151.525 332.538 151.978 332.422Q152.43 332.306 152.893 332.239C159.221 331.343 166.962 341.333 171.793 344.92L172.365 345.339C180.952 337.485 193.245 322.547 202.165 316.975Z"/>
	<path fill="#D8E7F6" d="M544.749 207.833L545.239 209.43C549.61 211.636 555.205 212.448 559.929 213.822C567.081 215.902 574.17 218.344 581.239 220.69C583.662 221.494 587.113 222.249 589.186 223.64L589.484 226.673Q594.35 226.519 599.219 226.569C600.724 226.807 601.242 226.648 602.272 227.822C602.993 230.268 602.191 232.804 601.993 235.291L601.962 240.382C599.425 240.358 596.405 239.879 594.441 241.799C593.837 242.39 594.037 242.207 594.017 243.176C594.82 244.024 595.577 244.53 596.757 244.632C598.294 244.765 599.967 244.601 601.51 244.538Q601.604 250.154 601.562 255.771L601.534 263.517L600.548 264.058L601.639 264.74C601.469 265.789 601.51 266.565 600.835 267.412L601.853 267.475C601.996 270.209 601.959 272.778 601.735 275.507C601.627 277.344 601.317 278.448 602.16 280.108C605.087 281.692 608.839 280.633 612.084 280.767C612.978 281.893 613.89 283.278 614.922 284.261C613.848 288.004 614.007 325.147 614.042 331.062L368.341 330.921C331.402 330.923 294.411 330.331 257.48 330.849L257.401 330.47C271.208 329.968 285.167 330.367 298.989 330.373L376.454 330.449C377.75 299.221 387.214 272.071 405.002 246.415L431.956 246.485C445.842 246.541 461.794 248.485 473.165 238.741C480.762 232.231 483.46 223.008 484.195 213.376C484.773 212.528 484.727 210.851 484.849 209.813C489.649 208.049 519.23 210.105 526.537 210.231C527.666 213.159 528.889 215.364 531.885 216.675C534.339 217.75 537.117 217.659 539.575 216.629C541.317 215.899 542.519 214.629 543.767 213.259C544.391 211.442 544.57 209.74 544.749 207.833Z"/>
	<path fill="#D18838" d="M600.835 267.412C597.018 267.541 591.549 268.439 588.212 266.2L588.321 265.475C592.244 263.647 596.33 264.027 600.548 264.058L601.639 264.74C601.469 265.789 601.51 266.565 600.835 267.412Z"/>
	<path fill="#D73D75" d="M478.619 287.039C479.906 287.071 481.157 287.113 482.376 287.572C484.453 288.355 486.246 289.952 487.104 292.017C487.997 294.166 487.878 296.586 486.959 298.707C485.765 301.461 483.656 302.637 480.991 303.723L480.706 303.705C479.284 303.63 477.706 303.655 476.384 303.068C474.389 302.181 472.729 300.359 471.977 298.321Q471.832 297.923 471.729 297.512Q471.627 297.101 471.568 296.681Q471.51 296.262 471.495 295.838Q471.481 295.415 471.511 294.992Q471.542 294.57 471.616 294.153Q471.691 293.735 471.809 293.329Q471.927 292.922 472.087 292.529Q472.247 292.137 472.448 291.764C473.829 289.173 475.926 287.952 478.619 287.039Z"/>
	<path fill="#D8E7F6" d="M477.93 290.329C479.578 290.401 481.301 290.701 482.504 291.96C483.502 293.005 483.976 294.1 483.862 295.547C483.68 297.842 482.369 299.038 480.709 300.464C478.959 300.562 477.529 300.482 476.207 299.11C475.366 298.238 475.014 297.156 475.011 295.961C475.005 293.422 476.18 292.015 477.93 290.329Z"/>
	<defs>
		<linearGradient id="gradient_1" gradientUnits="userSpaceOnUse" x1="76.753609" y1="631.53473" x2="254.72389" y2="518.06696">
			<stop offset="0" stop-color="#0099EF"/>
			<stop offset="1" stop-color="#76D4F8"/>
		</linearGradient>
	</defs>
	<path fill="url(#gradient_1)" d="M222.366 428.154C222.993 437.537 222.52 447.178 222.509 456.592L222.486 512.531C230.536 512.521 248.753 510.546 254.579 516.37C256.248 518.038 257.45 520.438 257.85 522.758C259.274 531.014 258.233 548.164 258.209 557.588C258.156 578.41 258.711 599.419 258.048 620.213C257.925 624.072 257.407 629.822 254.496 632.567C246.488 640.12 233.492 637.68 223.304 637.812C223.338 642.778 223.525 647.792 223.335 652.752C222.866 647.919 223.128 642.835 223.082 637.971C218.436 638 213.654 638.248 209.038 637.695C202.733 636.779 195.335 637.468 188.942 637.471L146.307 637.51C151.234 650.242 157.39 662.498 162.122 675.285C149.961 662.594 138.176 649.628 125.83 637.088C115.782 636.943 94.7913 638.247 86.0125 636.605C83.0102 636.043 80.0153 634.831 77.6694 632.843C73.8019 629.566 71.1414 625.001 70.7762 619.929C70.3128 613.494 70.5968 606.878 70.5998 600.424L70.5453 567.29C70.5253 558.368 69.4687 535.121 70.9771 527.55C71.5867 524.49 73.532 521.458 75.5989 519.175C78.0035 516.519 81.1763 514.226 84.7283 513.477C93.4442 511.639 109.971 512.683 119.419 512.666L175.944 512.614C186.769 512.609 197.656 512.846 208.473 512.422C213.059 512.076 217.66 512.266 222.254 512.369C222.03 494.398 222.149 476.413 222.17 458.441C222.182 448.434 221.688 438.127 222.366 428.154Z"/>
	<path fill="#FEFEFE" d="M101.203 550.02C105.087 549.896 115.198 548.757 118.169 551.068C118.812 551.569 119.301 552.025 119.416 552.847C119.68 554.73 118.491 556.075 117.365 557.415C113.035 557.537 103.061 558.785 99.7651 556.165C99.1866 555.705 98.7602 555.101 98.7391 554.36C98.6848 552.458 99.9462 551.251 101.203 550.02Z"/>
	<path fill="#FEFEFE" d="M194.428 572.065C199.524 571.802 222.297 570.624 225.775 572.938C226.977 573.737 227.044 574.071 227.34 575.384C226.961 576.99 226.422 577.705 225.306 578.904C220.146 579.707 198.694 580.381 194.614 578.396C193.333 577.772 193.115 577.124 192.642 575.846C192.827 574.123 193.348 573.395 194.428 572.065Z"/>
	<path fill="#FEFEFE" d="M175.024 592.19C188.318 591.884 201.633 592.48 214.93 592.127C218.766 592.026 223.518 591.841 226.507 594.672C226.744 595.27 227.212 595.935 227.005 596.582C226.543 598.025 224.828 598.986 223.576 599.681L193.12 599.615C187.725 599.634 182.034 600.14 176.673 599.689C174.913 599.54 174.109 599.279 172.748 598.173C172.202 596.994 171.78 595.921 172.265 594.613C172.802 593.16 173.786 592.85 175.024 592.19Z"/>
	<path fill="#FEFEFE" d="M100.706 592.538C107.346 592.225 154.767 591.382 157.082 593.215C158.027 593.963 158.534 594.752 158.495 595.993C158.45 597.383 157.463 598.506 156.654 599.535C149.789 599.918 103.05 600.307 100.154 598.945C99.3125 597.977 98.9073 597.575 98.9014 596.198C98.8945 594.565 99.715 593.68 100.706 592.538Z"/>
	<path fill="#FEFEFE" d="M101.091 571.6C111.214 571.519 174.681 570.719 178.381 572.531C179.107 573.476 179.374 573.759 179.439 574.999C179.532 576.762 178.715 577.811 177.6 579.006C168.185 579.387 104.119 579.683 100.028 578.11C99.1392 577.1 98.8957 576.865 98.9365 575.431C98.982 573.833 100.057 572.672 101.091 571.6Z"/>
	<path fill="#FEFEFE" d="M135.279 550.058C147.917 549.397 160.846 549.949 173.525 549.926C186.427 549.903 199.619 549.312 212.478 549.946C213.65 550.004 215.085 549.953 216.021 550.775C216.893 551.541 217.488 552.29 217.431 553.51C217.358 555.061 216.265 556.272 215.312 557.385C201.924 558.018 188.246 557.471 174.817 557.477C162.858 557.482 150.616 558.092 138.698 557.411C137.062 557.318 135.656 557.178 134.176 556.442C133.38 555.465 132.964 555.056 133.089 553.689C133.242 552.02 134.137 551.153 135.279 550.058Z"/>
	<path fill="#2A54B5" d="M749.255 807.407C749.137 792.353 748.503 776.795 749.406 761.781C750.301 780.348 749.349 799.159 749.405 817.75C749.43 825.988 750.672 866.085 749.229 871.495L614.11 871.579Q597.398 871.802 580.686 871.674C574.266 871.668 567.597 871.388 561.213 872.16C553.331 870.274 535.595 871.481 526.663 871.518L470.616 871.672C459.244 871.695 447.803 871.99 436.442 871.47C428.89 872.034 416.454 873.138 409.231 871.579C383.493 871.051 357.709 871.963 331.977 871.291Q315.454 871.106 298.93 871.122L298.977 822.529L298.573 822.49Q298.694 815.052 298.963 807.618C344.456 808.736 390.171 807.98 435.688 807.955L728.945 807.097C735.65 807.606 742.527 807.371 749.255 807.407Z"/>
	<path fill="#FEFEFE" d="M298.977 822.529C310.271 822.218 415.678 821.766 417.536 822.895L417.918 823.42Q412.948 847.387 409.231 871.579C383.493 871.051 357.709 871.963 331.977 871.291Q315.454 871.106 298.93 871.122L298.977 822.529Z"/>
	<path fill="#FEFEFE" d="M608.397 823.325C622.724 823.952 637.23 823.468 651.58 823.458C684.089 823.436 716.644 823.06 749.149 823.419L749.189 854.957C749.181 860.437 748.905 866.033 749.229 871.495L614.11 871.579C613.086 860.429 611.956 849.203 610.245 838.136C609.718 833.196 609.014 828.256 608.397 823.325Z"/>
	<path fill="#0B288E" d="M417.918 823.42C418.293 822.67 418.127 822.636 419.018 822.397C419.209 822.346 420.14 822.445 420.237 822.452L423.939 822.696L424 821.942C424.251 822.039 424.491 822.173 424.753 822.231C428.938 823.16 452.408 822.407 458.883 822.41L557.268 822.475C573.14 822.495 589.388 821.725 605.208 822.604C606.399 822.67 607.364 822.664 608.397 823.325C609.014 828.256 609.718 833.196 610.245 838.136C611.956 849.203 613.086 860.429 614.11 871.579Q597.398 871.802 580.686 871.674C574.266 871.668 567.597 871.388 561.213 872.16C553.331 870.274 535.595 871.481 526.663 871.518L470.616 871.672C459.244 871.695 447.803 871.99 436.442 871.47C428.89 872.034 416.454 873.138 409.231 871.579Q412.948 847.386 417.918 823.42Z"/>
	<path fill="#2A54B5" d="M610.245 838.136C611.956 849.203 613.086 860.429 614.11 871.579Q597.398 871.802 580.686 871.674C574.266 871.668 567.597 871.388 561.213 872.16C553.331 870.274 535.595 871.481 526.663 871.518L470.616 871.672C459.244 871.695 447.803 871.99 436.442 871.47C468.401 862.647 503.248 859.866 535.983 854.952C555.753 851.984 575.157 847.32 594.572 842.626C598.48 841.682 607.241 840.594 610.245 838.136Z"/>
	<defs>
		<linearGradient id="gradient_2" gradientUnits="userSpaceOnUse" x1="343.50043" y1="290.91913" x2="374.7226" y2="121.70028">
			<stop offset="0" stop-color="#1036A3"/>
			<stop offset="1" stop-color="#3B7DE2"/>
		</linearGradient>
	</defs>
	<path fill="url(#gradient_2)" d="M284.214 103.473C325.601 103.983 367.02 103.671 408.411 103.611L441.008 103.546C446.984 103.534 453.642 102.995 459.532 104.019C465.614 105.076 470.89 107.96 475.199 112.348C485.666 123.005 484.539 136.38 484.357 150.213L484.411 151.753C483.904 158.953 484.128 166.278 484.123 173.499L484.127 210.224L484.195 213.376C483.46 223.008 480.762 232.231 473.165 238.741C461.794 248.485 445.842 246.541 431.956 246.485L405.002 246.415L344.503 246.455C330.79 259.261 318.161 273.731 305.23 287.347Q305.45 266.884 305.411 246.42C288.257 246.453 272.176 247.852 258.626 235.194C249.552 226.717 246.106 215.807 245.817 203.654C245.544 192.196 245.869 180.69 245.862 169.227C245.855 158.27 244.559 140.923 246.979 131.011C248.518 124.704 251.932 118.989 256.438 114.346C263.987 106.568 273.572 103.598 284.214 103.473Z"/>
	<path fill="#FEFEFE" d="M384.569 193.624C394.945 194.716 415.196 192.365 423.743 194.535C423.95 194.846 424.157 195.156 424.351 195.475C425.326 197.082 426.09 199.314 425.444 201.179C425.066 202.27 424.186 202.984 423.191 203.489C421.651 204.27 419.842 204.517 418.138 204.616C413.782 204.869 383.764 204.787 381.789 203.851C380.483 203.231 379.809 202.476 379.295 201.125C378.696 199.553 379.023 197.512 379.841 196.093C380.897 194.26 382.682 194.025 384.569 193.624Z"/>
	<path fill="#FEFEFE" d="M296.331 193.559C309.884 193.052 323.613 193.49 337.182 193.487C345.466 193.485 354.769 192.675 362.963 193.761C364.544 193.97 366.052 194.437 367.187 195.629C368.126 196.615 368.452 197.852 368.32 199.177C368.098 201.412 366.984 202.607 365.299 203.956C358.791 205.471 339.812 204.546 332.265 204.565C321.259 204.592 309.562 205.425 298.619 204.487C297.027 204.351 295.182 203.585 294.231 202.238C293.372 201.023 293.088 199.823 293.257 198.358C293.528 196.006 294.527 194.987 296.331 193.559Z"/>
	<defs>
		<linearGradient id="gradient_3" gradientUnits="userSpaceOnUse" x1="380.80225" y1="206.96295" x2="382.38406" y2="103.33054">
			<stop offset="0" stop-color="#3E71E5"/>
			<stop offset="1" stop-color="#7095EE"/>
		</linearGradient>
	</defs>
	<path fill="url(#gradient_3)" d="M284.214 103.473C325.601 103.983 367.02 103.671 408.411 103.611L441.008 103.546C446.984 103.534 453.642 102.995 459.532 104.019C465.614 105.076 470.89 107.96 475.199 112.348C485.666 123.005 484.539 136.38 484.357 150.213L484.411 151.753C483.904 158.953 484.128 166.278 484.123 173.499L484.127 210.224C472.628 206.598 460.589 207.257 449.023 204.44C445.184 204.649 439.868 205.586 436.581 202.963C435.676 202.241 434.957 201.317 434.942 200.103C434.919 198.112 436.103 196.31 437.312 194.852C433.116 193.906 428.043 194.29 423.743 194.535C415.196 192.365 394.945 194.716 384.569 193.624C388.06 192.741 392.932 193.333 396.584 193.321C388.219 190.67 380.334 186.982 372.382 183.308C369.893 182.158 366.394 179.721 363.87 179.148C363.594 179.085 362.249 179.105 362.011 179.109C360.856 179.127 360.165 179.256 359.123 178.68C346.201 178.382 333.196 178.544 320.269 178.64C313.898 178.688 307.173 179.164 300.839 178.576C298.662 178.373 296.475 177.947 294.537 176.894C293.061 176.091 292.568 175.325 292.047 173.763C292.186 172.586 292.546 171.842 293.188 170.869C294.656 168.643 295.916 168.399 298.397 167.841C304.213 166.987 310.608 167.692 316.517 167.468C311.252 164.716 300.098 160.195 298.258 154.137C298.022 153.363 298.252 153.63 297.725 153.015C297.629 152.902 297.514 152.807 297.408 152.703C295.388 151.954 294.152 151.441 293.259 149.299C292.424 147.296 293.289 144.957 294.053 143.095Q292.79 142.318 291.591 141.446C285.411 136.998 280.692 129.581 279.558 122.012C278.511 115.031 280.172 109.126 284.214 103.473Z"/>
	<path fill="#FEFEFE" d="M437.312 194.852C441.345 193.181 445.663 192.764 449.765 194.484C451.052 195.024 452.357 195.91 452.989 197.195C453.533 198.302 453.286 199.558 452.714 200.599C451.801 202.262 450.586 203.407 449.023 204.44C445.184 204.649 439.868 205.586 436.581 202.963C435.676 202.241 434.957 201.317 434.942 200.103C434.919 198.112 436.103 196.31 437.312 194.852Z"/>
	<path fill="#FEFEFE" d="M294.053 143.095C297.905 141.21 317.854 141.378 322.037 142.793C323.299 143.22 324.648 144.017 325.309 145.213C325.883 146.253 325.906 147.739 325.476 148.834C324.77 150.636 322.988 151.55 321.241 152.052C314.392 154.023 304.739 151.919 297.408 152.703C295.388 151.954 294.152 151.441 293.259 149.299C292.424 147.296 293.289 144.957 294.053 143.095Z"/>
	<path fill="#FEFEFE" d="M437.775 167.753C441.333 167.693 446.96 166.971 450.17 168.685C451.516 169.404 452.642 170.909 452.883 172.403C453.126 173.908 452.779 175.618 451.764 176.787C450.772 177.93 449.406 178.181 447.979 178.358C443.422 178.924 438.488 178.529 433.888 178.514L406.052 178.422C402.521 178.474 396.733 179.178 393.625 177.399C392.344 176.666 391.016 174.62 390.911 173.105C390.826 171.866 391.134 171.134 391.964 170.218C393.412 168.621 396.681 168.129 398.679 167.893C402.927 167.392 407.457 167.791 411.742 167.788L437.775 167.753Z"/>
	<path fill="#FEFEFE" d="M298.397 167.841C317.264 168.648 336.351 167.883 355.239 167.853C361.945 167.843 369.387 167.011 375.98 167.941C377.593 168.169 380.191 168.829 381.265 170.19C382.038 171.167 382.436 172.041 382.164 173.303C381.729 175.32 379.614 176.955 377.862 177.787C373.19 180.007 364.369 178.594 359.123 178.68C346.201 178.382 333.196 178.544 320.269 178.64C313.898 178.688 307.173 179.164 300.839 178.576C298.662 178.373 296.475 177.947 294.537 176.894C293.061 176.091 292.568 175.325 292.047 173.763C292.186 172.586 292.546 171.842 293.188 170.869C294.656 168.643 295.916 168.399 298.397 167.841Z"/>
	<path fill="#FEFEFE" d="M338.55 142.161C359.471 141.362 380.661 142.031 401.607 142.029C415.875 142.028 432.751 141.132 446.763 142.243C448.859 142.409 450.89 142.611 452.258 144.402C452.873 145.208 453.029 146.376 452.854 147.367C452.427 149.775 451.139 150.883 449.24 152.215C444.93 152.865 440.212 152.473 435.845 152.472L410.497 152.468L365.946 152.45C357.773 152.445 349.487 152.719 341.33 152.299C339.329 152.196 337.264 152.065 336.004 150.263C335.164 149.063 335.114 147.594 335.393 146.213C335.825 144.071 336.797 143.26 338.55 142.161Z"/>
	<path fill="#0B288E" d="M763.99 736.63C763.939 729.696 762.253 712.984 767.131 708.1C768.471 706.757 770.235 706.049 772.096 705.794C775.522 705.324 779.308 705.809 782.781 705.864Q793.698 706.035 804.616 706.088C812.348 706.308 820.48 706.856 828.178 706.087Q842.536 705.974 856.894 706.025C862.439 706.032 868.648 706.504 874.109 705.644C876.755 706.554 878.794 707.286 880.158 709.874C883.174 715.594 881.434 728.647 881.497 735.36C886.148 735.399 890.854 735.285 895.496 735.527C897.851 737.223 899.429 738.642 900.89 741.159Q901.004 753.345 900.981 765.532C912.476 765.661 922.7 764.987 931.447 773.951C934.793 777.38 937.636 781.486 938.91 786.156C941.119 794.251 939.972 807.718 939.978 816.268C939.988 829.458 940.199 842.692 939.937 855.879C939.757 864.95 938.183 872.585 931.255 879.021C922.591 887.069 912.084 886.227 901.129 886.368C901.243 896.107 902.508 907.012 895.023 914.592C891.844 917.812 887.462 919.987 883.003 920.71C872.601 922.397 853.698 921.216 842.51 921.189C819.198 921.132 795.802 921.62 772.5 921.18Q770.304 921.134 768.115 920.956C763.206 919.58 758.899 917.198 755.494 913.336Q754.533 912.246 753.704 911.053Q752.876 909.859 752.191 908.578Q751.505 907.297 750.973 905.945Q750.44 904.593 750.067 903.189C747.919 895.084 748.615 880.12 749.229 871.495C750.672 866.085 749.43 825.988 749.405 817.75C749.349 799.159 750.301 780.348 749.406 761.781C749.405 761.732 749.404 761.683 749.404 761.634C749.449 752.121 752.986 745.651 759.603 739.021C761.02 738.159 762.528 737.414 763.99 736.63Z"/>
	<path fill="#0E8AD5" d="M873.635 740.442C878.822 740.384 891.769 738.375 895.062 741.789C897.527 744.345 896.985 748.072 896.928 751.332C887.5 751.253 878.016 751.388 868.598 750.998C869.836 747.445 871.799 743.723 873.635 740.442Z"/>
	<path fill="#0E8AD5" d="M773.344 710.887C782.545 709.609 868.754 710.268 874.913 711.758C877.537 716.194 876.189 729.954 876.13 735.431L824.859 735.472C831.497 728.083 837.49 720.443 840.986 711.061C818.529 711.058 795.759 711.884 773.344 710.887Z"/>
	<path fill="#28B1F2" d="M756.896 751.005C757.812 748.377 758.84 745.458 760.778 743.392C762.036 742.052 763.292 741.537 765.101 741.292C774.317 740.042 791.419 740.932 801.586 740.896Q837.609 740.48 873.635 740.442C871.799 743.723 869.836 747.445 868.598 750.998L756.896 751.005Z"/>
	<path fill="#28B1F2" d="M768.638 735.55C768.527 730.582 767.211 717.896 769.423 713.691C770.381 711.87 771.505 711.432 773.344 710.887C795.759 711.884 818.529 711.058 840.986 711.061C837.49 720.443 831.497 728.083 824.859 735.472L768.638 735.55Z"/>
	<path fill="#FEFEFE" d="M901.126 770.512C909.74 770.406 918.697 769.484 925.906 775.217C931.193 779.421 934.538 785.373 935.158 792.112C936.222 803.672 935.456 815.973 935.484 827.606C935.506 836.262 936.603 856.53 934.833 864.17C933.839 868.462 931.532 871.675 928.758 874.966C920.017 882.339 911.736 881.57 901.117 881.248L901.126 770.512Z"/>
	<path fill="#D8E7F6" d="M862.437 756.066C873.794 755.914 885.149 756.284 896.507 756.233L896.622 859.486L896.583 886.307C896.566 891.68 897.038 897.636 896.008 902.906C895.392 906.057 893.454 908.998 891.189 911.213C888.729 913.62 886.069 915.087 882.687 915.692C873.411 917.349 860.663 916.242 851.049 916.21L788.868 916.003C789.597 915.515 789.331 915.645 790.021 915.336C792.909 914.042 795.878 912.715 798.592 911.084C811.16 903.535 821.871 882.691 825.43 869.056C833.533 867.802 840.316 864.747 846.346 859.113C853.95 852.008 858.579 842.247 858.796 831.801C859.012 821.429 854.741 811.207 847.623 803.736C855.245 788.092 862.145 772.802 868.377 756.54C866.386 756.467 864.418 756.266 862.437 756.066Z"/>
	<path fill="#FEFEFE" d="M753.821 756.855C766.451 755.787 779.558 756.536 792.258 756.436Q827.346 755.926 862.437 756.066C864.418 756.266 866.386 756.467 868.377 756.54C862.145 772.802 855.245 788.092 847.623 803.736C854.741 811.207 859.012 821.429 858.796 831.801C858.579 842.247 853.95 852.008 846.346 859.113C840.316 864.747 833.533 867.802 825.43 869.056C821.871 882.691 811.16 903.535 798.592 911.084C795.878 912.715 792.909 914.042 790.021 915.336C789.331 915.645 789.597 915.515 788.868 916.003C783.898 916.106 778.867 916.34 773.901 916.129C768.184 915.886 762.911 914.187 759.032 909.781Q758.566 909.244 758.139 908.674Q757.713 908.105 757.329 907.506Q756.945 906.907 756.605 906.282Q756.266 905.656 755.973 905.008Q755.679 904.36 755.434 903.693Q755.188 903.025 754.991 902.341Q754.795 901.657 754.648 900.961Q754.502 900.265 754.406 899.56C753.474 893.004 753.928 885.969 753.929 879.342L753.929 844.417L753.592 786.493C753.575 776.651 753.212 766.676 753.821 756.855Z"/>
	<path fill="#F15B6C" d="M786.368 814.087C785.83 821.367 785.988 828.569 791.083 834.392C792.27 835.749 793.529 836.734 795.066 837.659C790.91 838.38 786.814 834.328 783.19 835.892C782.024 827.77 783.483 821.629 786.368 814.087Z"/>
	<path fill="#F83F45" d="M783.19 835.892C786.814 834.328 790.91 838.38 795.066 837.659L795.546 837.847C795.54 840.377 795.793 842.7 796.201 845.184C797.302 846.656 798.318 848.029 799.712 849.238C798.722 850.059 797.798 850.769 797.008 851.794C794.246 850.794 789.643 847.042 787.178 847.456C784.964 844.191 783.864 839.72 783.19 835.892Z"/>
	<path fill="#FD7E74" d="M796.195 795.32C801.069 801.329 807.55 806.065 814.407 809.588C823.087 814.048 832.462 816.175 841.944 813.073C835.069 826.569 823.621 846.987 808.36 851.806C804.329 853.079 801.03 852.937 797.008 851.794C797.798 850.769 798.722 850.059 799.712 849.238C798.318 848.029 797.302 846.656 796.201 845.184C795.793 842.7 795.54 840.377 795.546 837.847C796.565 838.111 797.735 838.446 798.788 838.421C800.092 838.39 801.073 837.071 801.877 836.185C801.748 835.272 801.671 834.083 801.316 833.237C800.851 832.125 800.009 831.586 798.975 831.068L795.346 829.265C794.771 828.378 794.218 827.506 793.772 826.545C789.541 817.421 792.792 804.238 796.195 795.32Z"/>
	<path fill="#D42B3E" d="M801.877 836.185C802.975 836.857 803.144 837.366 803.418 838.581C804.118 841.684 804.217 845.491 802.638 848.304C801.492 849.094 801.116 849.097 799.712 849.238C798.318 848.029 797.302 846.656 796.201 845.184C795.793 842.7 795.54 840.377 795.546 837.847C796.565 838.111 797.735 838.446 798.788 838.421C800.092 838.39 801.073 837.071 801.877 836.185Z"/>
	<path fill="#D42B3E" d="M847.623 803.736C854.741 811.207 859.012 821.429 858.796 831.801C858.579 842.247 853.95 852.008 846.346 859.113C840.316 864.747 833.533 867.802 825.43 869.056C819.924 869.282 814.603 868.802 809.348 867.044C799.635 863.795 791.778 856.516 787.178 847.456C789.643 847.042 794.246 850.794 797.008 851.794C801.03 852.937 804.329 853.079 808.36 851.806C823.621 846.987 835.069 826.569 841.944 813.073C843.929 810.022 845.753 806.858 847.623 803.736Z"/>
	<defs>
		<linearGradient id="gradient_4" gradientUnits="userSpaceOnUse" x1="713.71667" y1="360.13428" x2="957.99005" y2="332.34927">
			<stop offset="0" stop-color="#456BD9"/>
			<stop offset="1" stop-color="#BABCF5"/>
		</linearGradient>
	</defs>
	<path fill="url(#gradient_4)" d="M734.289 248.483C742.855 246.755 761.253 247.933 771.03 247.695C773.315 250.542 775.391 252.911 776.526 256.428C792.823 256.46 931.092 257.428 932.879 256.18C938.261 256.044 943.931 255.756 948.192 259.691C951.35 262.607 951.517 267.655 951.571 271.708C951.949 300.08 951.474 328.517 951.392 356.893L951.5 382.123C951.526 386.683 951.855 391.513 951.319 396.046C950.952 399.151 949.772 402.813 947.422 405.005C945.748 406.567 943.025 406.959 940.844 407.21C935.621 407.812 930.098 407.446 924.834 407.419C914.451 407.368 904.02 407.208 893.641 407.445C896.121 422.217 898.662 437.06 900.327 451.949C888.594 436.401 874.941 421.712 862.13 407.007L834.363 406.92C829.477 406.908 824.293 406.553 819.456 407.123C814.662 407.561 809.826 407.385 805.017 407.329C805.046 415.035 805.432 422.934 804.908 430.616C804.2 422.905 804.606 414.821 804.59 407.063Q782.027 407.009 759.465 407.323C750.131 407.404 733.995 408.786 725.433 406.233C722.342 404.871 719.912 403.021 717.493 400.706L717.532 400.117C717.405 400.019 717.27 399.931 717.153 399.822C713.436 396.368 713.109 389.791 712.93 385.038C713.821 370.504 713.045 355.365 712.995 340.777C712.932 322.477 713.419 304.106 712.911 285.818C712.884 280.702 712.561 275.294 713.217 270.225C714.271 262.09 718.686 256.684 724.923 251.864C727.931 250.265 730.838 248.803 734.289 248.483Z"/>
	<path fill="#FEFEFE" d="M755.647 311.089C761.643 310.992 774.991 309.512 779.687 312.666C780.379 313.877 780.631 314.661 780.236 316.072C779.814 317.58 778.937 318.169 777.75 319.035C771.493 319.199 758.55 321.043 753.607 317.446C753.036 316.263 752.897 315.912 753.063 314.556C753.282 312.762 754.306 312.076 755.647 311.089Z"/>
	<path fill="#FEFEFE" d="M860.088 337.192C869.614 337.027 879.141 337.287 888.667 337.182C894.647 337.117 901.349 336.339 907.247 337.181C909.123 337.449 910.699 337.955 911.868 339.51C912.081 340.774 912.076 341.205 911.609 342.449C910.973 344.14 910.161 344.436 908.619 345.109C898.965 345.405 889.272 345.284 879.612 345.308C873.745 345.323 867.411 345.849 861.619 344.997C859.82 344.733 857.569 344.322 856.452 342.761C856.355 341.512 856.354 340.386 857.017 339.261C857.719 338.069 858.882 337.661 860.088 337.192Z"/>
	<path fill="#FEFEFE" d="M754.264 363.583C761.882 363.501 814.033 362.507 816.553 363.937C817.399 364.418 818.08 365.583 818.169 366.525C818.369 368.659 817.507 369.899 816.167 371.451C809.708 371.939 755.608 372.213 753.903 370.734C753.045 369.99 752.679 369.368 752.517 368.257C752.248 366.399 753.168 364.974 754.264 363.583Z"/>
	<path fill="#FEFEFE" d="M866.106 363.742C872.734 363.647 905.832 362.723 909.698 363.93C910.967 364.327 911.971 365.108 912.349 366.443C912.747 367.855 912.474 368.305 911.901 369.56C907.215 373.486 894.292 371.886 888.125 371.846C881.712 371.85 845.068 373.106 841.496 370.637C840.393 369.874 840.237 369.578 839.881 368.369C840.151 367.283 840.492 366.556 841.32 365.77C842.378 364.764 844.118 363.906 845.568 363.694C849.761 363.084 861.145 363.774 866.106 363.742Z"/>
	<path fill="#FEFEFE" d="M795.775 337.249C802.139 337.229 836.288 336.178 839.361 337.631C840.435 338.138 840.979 338.833 841.208 340.029C841.468 341.384 840.974 342.445 840.313 343.57C839.253 344.374 838.444 344.796 837.102 344.938C833.049 345.369 828.598 345.056 824.503 345.075L798.144 345.152C792.963 345.151 757.837 346.114 755.359 344.79C753.644 343.874 753.137 342.875 752.692 341.107C752.874 340.205 752.82 339.698 753.481 338.998C754.449 337.972 755.376 337.735 756.71 337.534C760.814 336.915 765.279 337.448 769.441 337.433L795.775 337.249Z"/>
	<path fill="#FEFEFE" d="M796.541 311.228L878.714 311.137C884.953 311.134 903.398 310.233 908.171 311.237C909.857 311.592 910.819 312.152 911.772 313.638C912.031 314.884 912.024 316.374 911.376 317.533C910.632 318.862 909.799 318.943 908.479 319.427L834.868 319.287C823.151 319.25 811.035 319.873 799.36 319.24C796.822 319.102 794.289 318.703 792.547 316.714C792.292 315.398 792.411 315.143 792.865 313.863L793.399 314.556L793.107 313.451C794.082 311.972 794.887 311.64 796.541 311.228Z"/>
	<path fill="#4B6AA5" d="M724.923 251.864C727.931 250.265 730.838 248.803 734.289 248.483L738.875 248.821C738.21 248.773 737.792 248.585 737.219 248.958L733.149 249.027L732.871 249.581C729.92 255.334 725.367 260.497 724.158 266.977C722.49 275.918 723.312 285.472 723.196 294.551C723.03 307.645 722.534 321.043 721.721 334.11C721.061 344.732 717.632 355.13 717.304 365.803C717.009 375.407 715.975 386.053 718.9 395.313C719.472 397.124 720.131 398.733 720.226 400.655C719.181 400.764 718.503 400.476 717.532 400.117C717.405 400.019 717.27 399.931 717.153 399.822C713.436 396.368 713.109 389.791 712.93 385.038C713.821 370.504 713.045 355.365 712.995 340.777C712.932 322.477 713.419 304.106 712.911 285.818C712.884 280.702 712.561 275.294 713.217 270.225C714.271 262.09 718.686 256.684 724.923 251.864Z"/>
	<path fill="#FEFEFE" d="M755.293 285.574C764.823 285.191 774.469 285.461 784.014 285.454L837.139 285.463L880.022 285.508C888.423 285.484 896.955 285.118 905.336 285.531C907.334 285.629 909.069 285.832 910.774 286.943C911.314 287.664 911.708 288.176 911.786 289.114C911.963 291.229 911.126 292.292 909.722 293.667C902.799 294.349 895.484 293.896 888.525 293.852L852.013 293.66L788.995 293.456C779.228 293.427 769.355 293.746 759.603 293.425C757.812 293.366 755.286 293.042 753.826 291.876C752.916 291.15 752.613 290.219 752.751 289.079C752.929 287.61 754.278 286.519 755.293 285.574Z"/>
	<path fill="#0B288E" d="M276.984 717.454C281.247 717.693 284.077 718.801 287.792 720.761C290.56 723.272 292.991 725.824 295.143 728.893C297.606 733.263 298.903 737.133 298.994 742.225L298.976 764.458L298.963 807.618Q298.694 815.052 298.573 822.49C298.231 834.247 298.451 846.051 298.484 857.813C298.541 877.66 300.267 893.734 284.415 908.806C278.393 914.532 269.724 919.23 261.545 920.816C252.745 922.388 239.364 921.344 229.978 921.349L163.345 921.346C146.224 921.301 133.819 920.984 121.045 907.962C115.247 902.052 110.824 894.264 109.054 886.147C107.004 876.747 108.256 852.565 108.238 841.58L108.073 745.83C108.12 736.902 108.486 730.226 115.359 723.616C118.72 720.383 122.471 718.941 126.982 718.09C136.107 716.368 146.635 717.432 155.963 717.434Q182.503 717.357 209.041 717.591C213.84 718.203 218.616 717.959 223.419 717.525C241.251 717.425 259.165 717.872 276.984 717.454Z"/>
	<path fill="#F15B6C" d="M128.928 722.601L129.57 722.58C161.859 721.637 194.436 722.438 226.754 722.416L260.556 722.409C266.221 722.411 272.415 721.973 278.028 722.754C281.372 723.219 285.243 725.857 287.623 728.197C295.463 735.904 293.529 748.391 293.429 758.44L278.75 758.437L113.459 758.408C113.373 750.127 111.736 738.117 116.233 730.775C119.154 726.006 123.7 723.877 128.928 722.601Z"/>
	<path fill="#FEFEFE" d="M215.501 735.024C216.564 734.998 217.697 734.928 218.749 735.103C219.995 735.311 221.502 736.298 222.181 737.387C223.047 738.776 223.274 740.177 222.865 741.765C222.185 744.402 220.69 745.573 218.445 746.935C218.067 746.92 217.688 746.905 217.311 746.874C215.235 746.703 213.378 745.869 212.113 744.157C211.17 742.881 210.869 741.3 211.212 739.749C211.764 737.252 213.451 736.249 215.501 735.024Z"/>
	<path fill="#FEFEFE" d="M190.456 734.98Q191.375 734.947 192.292 735.006C194.318 735.13 196.211 735.876 197.435 737.579C198.354 738.858 198.573 740.439 198.161 741.938C197.487 744.386 195.717 745.609 193.663 746.879C192.814 746.944 192.01 746.998 191.162 746.874C189.579 746.643 187.782 745.593 186.92 744.218C186.063 742.853 185.792 741.295 186.15 739.723C186.724 737.203 188.377 736.214 190.456 734.98Z"/>
	<path fill="#FEFEFE" d="M113.466 763.521L293.618 763.556C294.032 788.292 293.586 813.096 293.546 837.839C293.526 849.866 294.812 873.911 292.282 884.462C290.396 892.324 286.173 898.81 280.702 904.642C275.4 909.717 269.326 913.497 262.124 915.2C251.413 917.732 229.596 916.238 217.688 916.162Q189.385 916.007 161.084 916.277C146.976 916.38 135.815 915.093 125.345 904.627C120.368 899.653 116.137 893.105 114.496 886.202C111.848 875.057 113.281 852.594 113.328 840.5L113.466 763.521Z"/>
	<path fill="#28B1F2" d="M199.388 793.175Q200.347 793.055 201.311 792.978Q202.275 792.9 203.241 792.866Q204.207 792.832 205.174 792.841Q206.141 792.85 207.106 792.902Q208.072 792.954 209.034 793.049Q209.996 793.145 210.953 793.282Q211.91 793.421 212.86 793.601Q213.81 793.782 214.75 794.005Q215.691 794.227 216.621 794.492Q217.551 794.756 218.468 795.062Q219.385 795.368 220.288 795.715Q221.191 796.061 222.077 796.447Q222.963 796.834 223.831 797.259Q224.699 797.685 225.548 798.149Q226.396 798.613 227.223 799.114Q228.049 799.615 228.853 800.153C238.583 806.785 244.861 817.1 246.924 828.641Q247.113 829.698 247.249 830.764Q247.385 831.829 247.469 832.9Q247.552 833.971 247.582 835.044Q247.612 836.118 247.589 837.192Q247.566 838.265 247.489 839.337Q247.413 840.408 247.283 841.474Q247.154 842.54 246.972 843.599Q246.79 844.657 246.555 845.705Q246.321 846.754 246.035 847.789Q245.749 848.824 245.412 849.844Q245.075 850.864 244.688 851.865Q244.301 852.867 243.865 853.849Q243.428 854.83 242.944 855.789Q242.46 856.747 241.928 857.681Q241.397 858.614 240.82 859.52Q240.243 860.426 239.622 861.302C232.162 871.848 221.614 877.292 209.13 879.481C198.311 879.959 188.525 878.205 179.544 871.775Q178.651 871.134 177.792 870.45Q176.932 869.766 176.108 869.039Q175.283 868.313 174.496 867.547Q173.708 866.78 172.96 865.976Q172.211 865.172 171.504 864.331Q170.796 863.49 170.132 862.615Q169.467 861.741 168.846 860.834Q168.226 859.927 167.651 858.991Q167.076 858.054 166.549 857.09Q166.021 856.127 165.542 855.138Q165.063 854.149 164.634 853.137Q164.205 852.126 163.826 851.094Q163.448 850.063 163.121 849.014Q162.794 847.965 162.52 846.901Q162.246 845.837 162.025 844.76Q161.804 843.684 161.637 842.598Q161.462 841.535 161.34 840.464Q161.219 839.394 161.151 838.319Q161.083 837.244 161.068 836.166Q161.054 835.089 161.094 834.013Q161.133 832.936 161.226 831.863Q161.32 830.789 161.466 829.722Q161.613 828.655 161.813 827.596Q162.013 826.538 162.266 825.49Q162.518 824.443 162.823 823.409Q163.127 822.376 163.483 821.359Q163.839 820.342 164.245 819.344Q164.651 818.347 165.106 817.37Q165.562 816.394 166.066 815.442Q166.569 814.489 167.12 813.563Q167.67 812.637 168.267 811.74Q168.863 810.842 169.503 809.976C176.832 800.021 187.36 794.96 199.388 793.175Z"/>
	<path fill="#FEFEFE" d="M191.484 812.526C192.303 812.469 193.118 812.411 193.94 812.42C198.201 812.466 224.84 829.872 228.072 833.64C228.994 834.714 229.669 835.897 229.383 837.365C228.33 842.762 217.569 847.803 213.118 850.577C207.601 854.068 200.384 861.605 193.896 862.374C192.407 862.551 191.078 862.405 189.871 861.472C188.661 859.502 188.078 857.667 187.743 855.374C187.05 850.622 186.927 822.264 187.608 817.513C187.96 815.053 189.655 813.965 191.484 812.526Z"/>
	<path fill="#D8E7F6" d="M257.48 330.849C294.411 330.331 331.402 330.923 368.341 330.921L614.042 331.062L620.45 331.058L648.003 331.021C648.025 335.732 647.911 340.483 648.09 345.188C648.22 358.098 646.12 384.367 650.836 395.221C654.915 400.983 660.375 406.096 667.578 407.326C675.151 408.618 720.383 409.157 725.433 406.233C733.995 408.786 750.131 407.404 759.465 407.323Q782.027 407.009 804.59 407.063C804.606 414.821 804.2 422.905 804.908 430.616C805.432 422.934 805.046 415.035 805.017 407.329C809.826 407.385 814.662 407.561 819.456 407.123L819.573 466.27C819.588 475.134 818.656 485.238 819.903 493.969C819.31 502.418 819.714 511.068 819.707 519.542L819.616 565.795L819.478 706C822.371 706.025 825.289 705.969 828.178 706.087C820.48 706.856 812.348 706.308 804.616 706.088Q793.698 706.035 782.781 705.864C779.308 705.809 775.522 705.324 772.096 705.794C770.235 706.049 768.471 706.757 767.131 708.1C762.253 712.984 763.939 729.696 763.99 736.63C762.528 737.414 761.02 738.159 759.603 739.021C752.986 745.651 749.449 752.121 749.404 761.634C749.404 761.683 749.405 761.732 749.406 761.781C748.503 776.795 749.137 792.353 749.255 807.407C742.527 807.371 735.65 807.606 728.945 807.097L435.688 807.955C390.171 807.98 344.456 808.736 298.963 807.618L298.976 764.458L298.994 742.225C298.903 737.133 297.606 733.263 295.143 728.893C292.991 725.824 290.56 723.272 287.792 720.761C284.077 718.801 281.247 717.693 276.984 717.454C259.165 717.872 241.251 717.425 223.419 717.525L223.335 652.752C223.525 647.792 223.338 642.778 223.304 637.812C233.492 637.68 246.488 640.12 254.496 632.567C257.407 629.822 257.925 624.072 258.048 620.213C258.711 599.419 258.156 578.41 258.209 557.588C258.233 548.164 259.274 531.014 257.85 522.758C257.45 520.438 256.248 518.038 254.579 516.37C248.753 510.546 230.536 512.521 222.486 512.531L222.509 456.592C222.52 447.178 222.993 437.537 222.366 428.154Q222.316 413.558 222.453 398.962C222.727 398.807 223.006 398.659 223.275 398.496C237.564 389.856 249.251 374.068 254.09 358.193C255.356 354.041 256.009 349.574 256.898 345.322C257.638 340.565 257.451 335.653 257.48 330.849Z"/>
	<path fill="#C7D3E8" d="M461.956 630.882C464.797 645.774 461.377 660.733 463.06 675.534L462.893 699L462.355 699C462.411 691.943 461.799 684.912 461.607 677.862C461.351 668.435 461.439 658.969 461.415 649.536C461.401 643.544 460.842 636.772 461.956 630.882Z"/>
	<path fill="#0B288E" d="M586.365 421.624C593.948 421.637 606.174 420.42 613.035 422.029C614.66 422.41 615.718 423.341 616.561 424.759C617.39 426.155 617.641 427.544 617.139 429.116C616.456 431.257 615.077 432.07 613.222 433.101C606.947 433.488 592.699 434.169 587.101 432.816C585.158 432.347 582.937 431.366 582.047 429.437C581.488 428.225 581.611 426.739 582.024 425.501C582.763 423.29 584.414 422.59 586.365 421.624Z"/>
	<path fill="#0B288E" d="M495.403 421.585C504.561 420.978 514.109 421.527 523.312 421.502C531.319 421.48 540.33 420.588 548.168 421.73C549.982 421.995 551.877 422.786 552.861 424.43C553.563 425.603 553.642 427.084 553.363 428.394C552.89 430.618 551.644 431.679 549.821 432.887C540.482 433.595 530.688 433.068 521.305 433.086C513.577 433.101 505.161 433.763 497.509 432.882C495.973 432.706 494.374 432.308 493.218 431.212C492.044 430.098 491.67 428.647 491.824 427.089C492.092 424.377 493.321 423.184 495.403 421.585Z"/>
	<path fill="#93B8F5" d="M494.157 512.587C508.017 512.159 522.011 512.533 535.89 512.531C544.642 512.53 554.068 511.823 562.758 512.799C564.487 512.994 566.359 513.515 567.583 514.836C568.447 515.767 568.763 517.014 568.603 518.258C568.319 520.468 567.026 521.409 565.356 522.632C554.053 523.019 542.644 522.65 531.323 522.728C520.555 522.803 509.643 523.359 498.899 522.887C496.518 522.782 493.184 522.727 491.645 520.59C490.692 519.267 490.744 517.621 491.119 516.113C491.578 514.267 492.66 513.541 494.157 512.587Z"/>
	<path fill="#93B8F5" d="M494.297 484.016C508.762 483.095 523.736 483.969 538.251 484.041C549.766 484.098 562.022 483.299 573.436 484.333C574.995 484.475 576.561 484.576 577.762 485.719C578.581 486.498 578.879 487.487 578.871 488.592C578.85 491.237 577.856 492.638 575.977 494.387Q574.248 494.513 572.514 494.542C555.668 494.762 538.784 494.526 521.935 494.47C513.451 494.441 503.939 495.306 495.612 494.001C494.126 493.769 492.597 493.192 491.62 491.991C490.812 490.998 490.683 489.838 490.879 488.62C491.246 486.35 492.515 485.308 494.297 484.016Z"/>
	<path fill="#AD6A25" d="M276.984 717.454L276.963 639.108C276.958 627.141 276.025 612.787 277.185 601.143C277.485 598.13 278.047 595.634 279.884 593.171C283.323 588.56 288.571 586.542 294.09 585.842C293.917 586.1 293.748 586.359 293.573 586.615C291.63 589.455 288.347 591.831 287.676 595.382C286.85 599.756 287.37 605 287.374 609.462L287.403 638.289L287.381 690.421C287.326 698.328 286.453 712.472 287.543 719.674C287.591 719.989 287.721 720.476 287.792 720.761C284.077 718.801 281.247 717.693 276.984 717.454Z"/>
	<path fill="#43C7F6" d="M284.653 404.77C286.967 403.493 288.894 402.677 291.565 402.483C299.119 401.936 306.89 402.259 314.47 402.266L354.383 402.321L391.152 402.311C397.609 402.297 407.994 401.265 414.119 402.938C418.792 404.213 422.588 408.041 424.686 412.288C425.51 413.956 425.995 415.692 426.358 417.507C421.567 417.403 417.931 413.253 411.8 413.084C400.741 412.781 389.611 413.076 378.543 413.071C349.502 413.059 320.396 413.305 291.363 412.603C288.792 410.15 286.612 407.735 284.653 404.77Z"/>
	<path fill="#93B8F5" d="M494.669 457.089L652.793 457.221L705.408 457.062C713.496 457.047 722.21 456.398 730.233 457.16C731.72 457.301 733.16 457.842 734.199 458.96C735.321 460.167 735.632 461.92 735.266 463.496C734.772 465.625 733.382 466.545 731.663 467.644C715.075 468.822 697.827 467.939 681.166 467.984L581.116 467.991L527.29 467.797C517.217 467.849 506.484 468.816 496.501 467.735C494.61 467.53 492.665 467.071 491.574 465.341C490.806 464.124 490.802 462.792 491.082 461.433C491.557 459.124 492.78 458.245 494.669 457.089Z"/>
	<path fill="#C7D3E8" d="M424.075 728.632C424.317 738.178 419.558 749.923 412.999 756.854C406.264 763.972 397.996 764.658 388.775 764.847C358.905 765.459 328.868 764.477 298.976 764.458L298.994 742.225C322.939 741.923 346.907 742.182 370.855 742.23C381.144 742.251 399.029 743.467 408.558 741.25C415.584 739.615 420.521 734.609 424.075 728.632Z"/>
	<path fill="#C7D3E8" d="M291.621 542.542C316.773 543.311 342.083 542.783 367.254 542.828C382.422 542.855 400.575 544.047 415.336 542.271C415.762 548.733 416.453 555.784 411.762 561.008C408.07 565.12 402.879 565.489 397.663 565.608C378.65 566.043 359.542 565.652 340.52 565.627C329.189 565.613 316.898 566.583 305.731 565.095C302.145 564.617 298.305 563.921 295.653 561.316C292.32 558.039 291.231 554.123 291.312 549.541C291.354 547.209 291.488 544.871 291.621 542.542Z"/>
	<path fill="#E99B43" d="M354.106 585.5L393.21 585.428C399.871 585.421 407.859 584.572 414.368 585.96C417.064 586.535 419.642 588.074 421.601 589.99C423.934 592.272 425.098 594.93 425.71 598.113C427.028 604.962 426.165 612.867 426.155 619.847C426.135 632.572 426.289 645.31 426.121 658.033C426.098 659.76 426.096 661.494 426.018 663.219C420.671 658.701 409.918 641.727 404.211 640.818C402.566 635.448 399.396 630.859 394.74 627.665C388.82 623.603 382.498 622.868 375.615 624.252C368.479 614.011 356.599 597.406 354.106 585.5Z"/>
	<defs>
		<linearGradient id="gradient_5" gradientUnits="userSpaceOnUse" x1="573.76807" y1="710.48053" x2="589.20923" y2="798.89661">
			<stop offset="0" stop-color="#C4D7F0"/>
			<stop offset="1" stop-color="#C0BCFA"/>
		</linearGradient>
	</defs>
	<path fill="url(#gradient_5)" d="M462.355 699L462.893 699L463.281 722.513C463.559 736.308 463.264 748.708 473.884 759.087C478.16 763.265 483.362 766.322 489.338 767.25C496.927 768.428 505.124 767.741 512.807 767.667L546.477 767.537C594.573 767.425 642.845 766.464 690.924 767.597C696.801 771.483 703.697 775.166 709.084 779.64L552.378 780.069L505.103 780.099C496.689 780.112 487.741 780.746 479.397 779.816C475.238 779.352 471.541 777.898 468.462 775.006C465.153 771.899 463.175 767.604 462.209 763.22C460.889 757.228 461.267 750.661 461.284 744.548C461.324 729.346 462.485 714.187 462.355 699Z"/>
	<path fill="#2A54B5" d="M805.017 407.329C809.826 407.385 814.662 407.561 819.456 407.123L819.573 466.27C819.588 475.134 818.656 485.238 819.903 493.969C819.31 502.418 819.714 511.068 819.707 519.542L819.616 565.795L819.478 706C822.371 706.025 825.289 705.969 828.178 706.087C820.48 706.856 812.348 706.308 804.616 706.088L804.908 430.616C805.432 422.934 805.046 415.035 805.017 407.329Z"/>
	<path fill="#2A54B5" d="M257.48 330.849C294.411 330.331 331.402 330.923 368.341 330.921L614.042 331.062L620.45 331.058L648.003 331.021C648.025 335.732 647.911 340.483 648.09 345.188C600.99 344.395 553.781 344.988 506.669 345.062L256.898 345.322C257.638 340.565 257.451 335.653 257.48 330.849Z"/>
	<path fill="#D18838" d="M294.09 585.842C300.751 584.896 308.314 585.504 315.061 585.504L354.106 585.5C356.599 597.406 368.479 614.011 375.615 624.252C382.498 622.868 388.82 623.603 394.74 627.665C399.396 630.859 402.566 635.448 404.211 640.818C409.918 641.727 420.671 658.701 426.018 663.219L426.165 701.251C426.189 707.822 426.612 714.662 426.057 721.196C425.896 723.093 425.455 724.732 424.775 726.506L424.075 728.632C420.521 734.609 415.584 739.615 408.558 741.25C399.029 743.467 381.144 742.251 370.855 742.23C346.907 742.182 322.939 741.923 298.994 742.225C298.903 737.133 297.606 733.263 295.143 728.893C292.991 725.824 290.56 723.272 287.792 720.761C287.721 720.476 287.591 719.989 287.543 719.674C286.453 712.472 287.326 698.328 287.381 690.421L287.403 638.289L287.374 609.462C287.37 605 286.85 599.756 287.676 595.382C288.347 591.831 291.63 589.455 293.573 586.615C293.748 586.359 293.917 586.1 294.09 585.842Z"/>
	<path fill="#AD6A25" d="M402.295 658.116C403.719 661.179 402.942 665.576 401.767 668.639C399.552 674.409 395.138 679.503 389.411 681.94C385.831 683.463 382.347 683.671 378.509 683.488C375.539 693.644 369.98 703.072 360.405 708.297C351.358 713.234 329.145 713.771 319.31 710.646C311.428 708.141 304.509 701.884 300.808 694.533C298.212 689.377 296.059 680.969 297.768 675.313C297.996 674.558 298.476 673.947 298.922 673.312C300.366 678.273 302.009 682.917 304.869 687.258C309.399 694.133 316.25 699.401 324.432 701.01C331.331 702.367 347.902 702.427 354.818 700.93Q356.108 700.651 357.365 700.25Q358.623 699.848 359.836 699.328Q361.049 698.808 362.207 698.174Q363.364 697.54 364.456 696.798C373.629 690.638 377.905 682.069 380.006 671.504C382.403 671.515 384.894 671.612 387.236 671.036C394.466 669.258 398.771 664.272 402.295 658.116Z"/>
	<path fill="#AD6A25" d="M295.143 728.893C306.793 728.677 318.471 727.928 330.134 727.776C348.56 727.536 367.041 727.995 385.469 728.286C394.548 728.43 403.368 730.987 412.509 730.468C417.106 730.207 420.77 728.571 424.775 726.506L424.075 728.632C420.521 734.609 415.584 739.615 408.558 741.25C399.029 743.467 381.144 742.251 370.855 742.23C346.907 742.182 322.939 741.923 298.994 742.225C298.903 737.133 297.606 733.263 295.143 728.893Z"/>
	<path fill="#FEFEFE" d="M375.615 624.252C382.498 622.868 388.82 623.603 394.74 627.665C399.396 630.859 402.566 635.448 404.211 640.818C405.562 647.194 404.795 652.138 402.295 658.116C398.771 664.272 394.466 669.258 387.236 671.036C384.894 671.612 382.403 671.515 380.006 671.504C377.905 682.069 373.629 690.638 364.456 696.798Q363.364 697.54 362.207 698.174Q361.049 698.808 359.836 699.328Q358.623 699.848 357.365 700.25Q356.108 700.651 354.818 700.93C347.902 702.427 331.331 702.367 324.432 701.01C316.25 699.401 309.399 694.133 304.869 687.258C302.009 682.917 300.366 678.273 298.922 673.312C297.48 665.633 297.864 657.769 298.315 650.008C318.251 648.939 338.436 649.375 358.413 649.134C358.618 644.969 359.012 641.32 360.738 637.439C363.684 630.819 369.049 626.843 375.615 624.252Z"/>
	<path fill="#F83F45" d="M379.609 633.569C383.161 633.408 386.194 633.785 389.246 635.766C393.354 638.432 395.102 642.45 396.17 647.023C395.775 648.701 395.413 650.478 394.716 652.064C392.996 655.977 390.126 658.006 386.263 659.542C383.645 659.991 380.989 659.955 378.459 659.067Q377.848 658.852 377.263 658.575Q376.678 658.298 376.125 657.961Q375.572 657.625 375.057 657.233Q374.542 656.841 374.07 656.397Q373.599 655.954 373.176 655.464Q372.753 654.974 372.383 654.443Q372.013 653.911 371.701 653.344Q371.388 652.777 371.136 652.181Q370.862 651.52 370.655 650.835Q370.449 650.15 370.312 649.448Q370.175 648.746 370.11 648.033Q370.044 647.321 370.051 646.605Q370.057 645.89 370.135 645.179Q370.213 644.468 370.362 643.768Q370.511 643.068 370.73 642.387Q370.948 641.706 371.234 641.05C372.947 637.113 375.749 635.131 379.609 633.569Z"/>
	<path fill="#FD7E74" d="M381.111 640.045C382.375 639.945 383.653 639.838 384.912 640.058C387.04 640.43 389.212 641.76 390.417 643.567C391.501 645.192 391.776 647.181 391.276 649.06C390.544 651.815 388.476 653.458 386.183 654.924C384.832 655.067 383.356 655.16 382.013 654.871C379.894 654.415 377.903 652.9 376.833 651.031C375.823 649.268 375.682 647.135 376.282 645.207C377.092 642.607 378.848 641.351 381.111 640.045Z"/>
	<path fill="#0B288E" d="M307.035 660.81L362.119 660.898C365.23 664.436 368.386 667.192 372.358 669.733C370.386 675.231 368.097 680.133 364.563 684.799Q363.777 685.676 362.952 686.515C355.53 694.108 348.093 693.119 338.355 693.194C329.329 693.263 321.096 693.476 314.255 686.458C307.06 679.077 306.998 670.341 307.035 660.81Z"/>
	<path fill="#28B1F2" d="M284.653 404.77C286.612 407.735 288.792 410.15 291.363 412.603C320.396 413.305 349.502 413.059 378.543 413.071C389.611 413.076 400.741 412.781 411.8 413.084C417.931 413.253 421.567 417.403 426.358 417.507C426.779 441.848 426.499 466.235 426.512 490.58L426.526 514.763C426.532 519.495 426.836 524.447 426.348 529.15C426.157 530.999 425.601 532.671 424.752 534.312C422.285 538.102 419.455 540.418 415.336 542.271C400.575 544.047 382.422 542.855 367.254 542.828C342.083 542.783 316.773 543.311 291.621 542.542Q291.08 542.413 290.544 542.261C285.682 540.869 281.416 537.154 279.097 532.69C278.241 531.042 277.513 529.268 277.327 527.406C276.692 521.055 276.981 514.507 276.982 508.124L277.007 477.099L276.972 439.632C276.967 432.255 275.821 419.528 277.902 412.731C279.751 409.403 281.518 407.02 284.653 404.77Z"/>
	<path fill="#0E8AD5" d="M323.698 471.52C322.554 478.933 323.329 485.552 327.797 491.854Q328.147 492.359 328.522 492.846Q328.897 493.332 329.295 493.8Q329.694 494.268 330.115 494.715Q330.536 495.163 330.978 495.589Q331.421 496.015 331.884 496.419Q332.347 496.823 332.829 497.204Q333.312 497.584 333.812 497.941Q334.313 498.297 334.83 498.628Q335.348 498.959 335.881 499.264Q336.414 499.57 336.962 499.848Q337.51 500.127 338.07 500.378Q338.631 500.629 339.204 500.852Q339.776 501.076 340.359 501.27Q340.941 501.465 341.533 501.631Q342.125 501.797 342.724 501.933Q343.323 502.069 343.928 502.176C349.826 503.176 355.272 501.718 360.561 499.209L359.528 505.775C355.306 510.529 350.541 513.635 344.034 513.971C337.184 514.325 330.293 511.499 325.291 506.888Q324.844 506.482 324.418 506.053Q323.992 505.625 323.588 505.176Q323.184 504.727 322.803 504.258Q322.421 503.79 322.064 503.302Q321.707 502.815 321.374 502.311Q321.042 501.807 320.735 501.286Q320.428 500.766 320.147 500.231Q319.866 499.696 319.613 499.148Q319.359 498.6 319.133 498.039Q318.907 497.479 318.71 496.908Q318.512 496.337 318.343 495.757Q318.174 495.177 318.035 494.59Q317.895 494.002 317.785 493.408Q317.674 492.814 317.594 492.215Q317.513 491.617 317.463 491.015Q317.412 490.413 317.392 489.809C317.135 483.309 319.274 476.377 323.698 471.52Z"/>
	<path fill="#0E8AD5" d="M277.902 412.731C280.967 414.261 282.775 416.817 284.757 419.506C285.231 428.602 285 437.809 285.033 446.921L285.198 495.2C285.223 503.716 284.143 515.303 285.784 523.381C286.31 525.972 287.91 528.622 289.815 530.437C292.167 532.676 295.785 533.285 298.895 533.634C304.394 534.251 310.23 533.833 315.781 533.787Q329.013 533.692 342.245 533.76C366.783 533.829 391.407 534.857 415.93 534.027C419.899 531.728 421.853 530.249 424.52 526.508C424.974 525.87 424.988 525.207 425.862 525.401C425.676 528.147 424.368 531.696 424.752 534.312C422.285 538.102 419.455 540.418 415.336 542.271C400.575 544.047 382.422 542.855 367.254 542.828C342.083 542.783 316.773 543.311 291.621 542.542Q291.08 542.413 290.544 542.261C285.682 540.869 281.416 537.154 279.097 532.69C278.241 531.042 277.513 529.268 277.327 527.406C276.692 521.055 276.981 514.507 276.982 508.124L277.007 477.099L276.972 439.632C276.967 432.255 275.821 419.528 277.902 412.731Z"/>
	<path fill="#FEFEFE" d="M332.702 458.612C332.119 453.676 332.752 449.308 335.981 445.333Q336.501 444.699 337.083 444.123Q337.666 443.546 338.304 443.032Q338.943 442.519 339.631 442.073Q340.319 441.628 341.05 441.256Q341.78 440.884 342.545 440.59Q343.31 440.295 344.101 440.08Q344.892 439.866 345.701 439.734Q346.51 439.602 347.328 439.554C351.62 439.264 356.061 440.663 359.271 443.557C362.455 446.428 364.438 450.831 364.553 455.115C364.59 456.457 364.513 457.769 364.232 459.084C369.691 465.563 373.924 471.921 373.017 480.845C372.354 487.36 368.772 492.921 363.733 496.943Q362.201 498.152 360.561 499.209C355.272 501.718 349.826 503.176 343.928 502.176Q343.323 502.069 342.724 501.933Q342.125 501.797 341.533 501.631Q340.941 501.465 340.359 501.27Q339.776 501.076 339.204 500.852Q338.631 500.629 338.07 500.378Q337.51 500.127 336.962 499.848Q336.414 499.57 335.881 499.264Q335.348 498.959 334.83 498.628Q334.313 498.297 333.812 497.941Q333.312 497.584 332.829 497.204Q332.347 496.823 331.884 496.419Q331.421 496.015 330.978 495.589Q330.536 495.163 330.115 494.715Q329.694 494.268 329.295 493.8Q328.897 493.332 328.522 492.846Q328.147 492.359 327.797 491.854C323.329 485.552 322.554 478.933 323.698 471.52C325.772 466.148 328.529 462.545 332.702 458.612Z"/>
	<path fill="#E74A17" d="M340.053 462.481C339.241 458.188 338.328 452.806 341.053 448.981C342.01 447.638 343.289 446.929 344.905 446.75C346.316 446.593 347.13 447.397 348.255 448.179C349.763 448.031 350.889 447.466 352.233 446.826C354.048 446.907 355.162 447.151 356.429 448.622C358.333 450.83 358.437 455.535 357.887 458.237C357.524 460.02 356.935 461.795 356.221 463.467C355.059 465.469 353.761 467.136 351.575 468.065C349.498 468.948 347.087 469.032 345.002 468.131C342.247 466.941 341.208 465.135 340.053 462.481Z"/>
	<path fill="#0B288E" d="M340.053 462.481C341.208 465.135 342.247 466.941 345.002 468.131C347.087 469.032 349.498 468.948 351.575 468.065C353.761 467.136 355.059 465.469 356.221 463.467C359.151 464.51 361.851 466.356 363.709 468.864C366.241 472.283 367.496 476.098 366.824 480.33Q366.742 480.817 366.636 481.299Q366.53 481.782 366.4 482.258Q366.27 482.735 366.116 483.204Q365.963 483.674 365.786 484.135Q365.609 484.596 365.41 485.048Q365.211 485.5 364.989 485.941Q364.768 486.383 364.524 486.812Q364.281 487.242 364.017 487.66Q363.752 488.077 363.468 488.48Q363.183 488.884 362.879 489.273Q362.574 489.662 362.251 490.035Q361.927 490.408 361.586 490.765Q361.244 491.122 360.885 491.461Q360.526 491.801 360.151 492.122Q359.776 492.443 359.385 492.745Q358.994 493.047 358.589 493.329Q357.832 493.84 357.029 494.273Q356.225 494.707 355.383 495.06Q354.541 495.412 353.668 495.681Q352.795 495.949 351.9 496.13Q351.006 496.311 350.097 496.404Q349.189 496.496 348.276 496.499Q347.363 496.502 346.454 496.415Q345.545 496.329 344.649 496.153Q344.162 496.053 343.681 495.928Q343.201 495.803 342.727 495.653Q342.253 495.504 341.787 495.331Q341.321 495.158 340.865 494.962Q340.409 494.765 339.963 494.546Q339.517 494.326 339.083 494.085Q338.649 493.843 338.227 493.579Q337.806 493.316 337.399 493.032Q336.991 492.747 336.599 492.443Q336.206 492.138 335.83 491.814Q335.453 491.489 335.094 491.146Q334.734 490.803 334.393 490.443Q334.051 490.082 333.728 489.704Q333.405 489.327 333.102 488.933Q332.798 488.54 332.515 488.132Q332.232 487.723 331.97 487.301C329.615 483.525 328.582 478.86 329.626 474.485C331.011 468.682 335.261 465.445 340.053 462.481Z"/>
	<path fill="#BAB8F8" d="M485.651 575.832C490.089 574.562 494.252 573.752 498.865 573.519C513.019 572.807 527.469 573.49 541.656 573.517L622.128 573.52L690.823 573.468C702.556 573.46 714.757 572.791 726.445 573.715C731.846 574.141 737.021 575.526 741.777 578.152Q742.509 578.56 743.22 579.004Q743.93 579.447 744.618 579.926Q745.305 580.405 745.968 580.918Q746.631 581.431 747.267 581.976Q747.903 582.521 748.511 583.098Q749.119 583.674 749.698 584.28Q750.276 584.886 750.823 585.521Q751.371 586.155 751.886 586.816Q752.401 587.477 752.882 588.163Q753.363 588.849 753.809 589.558Q754.255 590.267 754.665 590.998Q755.075 591.729 755.448 592.479Q755.821 593.229 756.156 593.997Q756.491 594.765 756.787 595.549Q757.083 596.333 757.339 597.131Q757.596 597.928 757.812 598.738C760.499 608.555 759.116 632.421 759.106 643.76Q759.242 678.949 758.973 714.138C758.921 719.556 757.719 734.457 759.603 739.021C752.986 745.651 749.449 752.121 749.404 761.634C749.404 761.683 749.405 761.732 749.406 761.781C748.503 776.795 749.137 792.353 749.255 807.407C742.527 807.371 735.65 807.606 728.945 807.097C735.389 806.471 741.964 807.211 748.445 806.756L746.869 805.277C741.933 800.557 735.708 797.494 730.811 792.884C723.757 788.306 716.653 783.326 709.084 779.64C703.697 775.166 696.801 771.483 690.924 767.597C642.845 766.464 594.573 767.425 546.477 767.537L512.807 767.667C505.124 767.741 496.927 768.428 489.338 767.25C483.362 766.322 478.16 763.265 473.884 759.087C463.264 748.708 463.559 736.308 463.281 722.513L462.893 699L463.06 675.534C461.377 660.733 464.797 645.774 461.956 630.882C462.532 620.121 460.261 608.694 463.881 598.31C467.627 587.565 475.639 580.629 485.651 575.832Z"/>
	<path fill="#2A54B5" d="M587.291 607.626C593.565 607.352 611.526 606.043 615.718 610.148C616.461 610.876 616.893 611.882 616.744 612.933C616.425 615.189 614.802 617.011 613.176 618.454C606.212 618.906 598.109 619.313 591.169 618.66C588.924 618.449 585.814 617.833 584.479 615.77C583.793 614.709 583.849 613.13 584.025 611.918C584.342 609.732 585.615 608.825 587.291 607.626Z"/>
	<path fill="#4B6AA5" d="M494.679 607.712C502.45 607.716 548.296 606.701 552.415 608.034C554.015 608.552 555.172 609.742 555.81 611.275C556.397 612.685 556.623 614.194 555.854 615.601C554.86 617.421 553.066 618.311 551.205 618.979L517.203 619.06C510.247 619.088 503.084 619.488 496.164 618.98C494.538 618.861 492.557 618.695 491.174 617.736C490.097 616.99 489.193 615.642 488.944 614.36C488.631 612.745 489.214 611.273 490.141 609.981C491.348 608.299 492.761 608.047 494.679 607.712Z"/>
	<path fill="#7A8BB6" d="M492.311 670.617C502.019 670.24 569.448 669.669 574.118 671.334C575.142 671.699 575.79 672.688 576.085 673.709C576.421 674.872 576.182 676.263 575.549 677.284C574.806 678.483 573.857 678.813 572.577 679.201L517.038 679.481C510.073 679.522 498.705 680.483 492.149 679.322C490.997 679.118 490.299 678.478 489.467 677.728C488.995 676.437 488.822 676.008 489.101 674.615C489.509 672.579 490.707 671.737 492.311 670.617Z"/>
	<path fill="#A166D9" d="M463.06 675.534L463.123 674.9C463.688 668.682 462.777 633.037 464.338 630.619C465.799 639.603 465.145 649.71 465.284 658.821Q465.865 681.959 465.962 705.105C465.964 715.449 464.783 727.183 467.834 737.143C470.259 745.059 475.22 751.704 481.962 756.481C486.06 759.384 491.178 761.77 496.176 762.402C505.176 763.541 514.646 763.012 523.722 763.021L570.223 763.028L643.268 763.137C659.256 763.201 675.328 763.553 691.307 763.088C696.56 765.843 729.342 789.118 730.811 792.884C723.757 788.306 716.653 783.326 709.084 779.64C703.697 775.166 696.801 771.483 690.924 767.597C642.845 766.464 594.573 767.425 546.477 767.537L512.807 767.667C505.124 767.741 496.927 768.428 489.338 767.25C483.362 766.322 478.16 763.265 473.884 759.087C463.264 748.708 463.559 736.308 463.281 722.513L462.893 699L463.06 675.534Z"/>
	<path fill="#7A8BB6" d="M718.99 643.238C721.485 643.122 724.247 642.917 726.456 644.315C727.576 645.025 728.332 646.104 728.537 647.425C728.64 648.087 728.583 649.423 728.109 649.876C726.422 651.487 722.973 651.792 720.748 651.926C712.471 652.422 703.931 652.013 695.632 652.003L648.479 651.957L500.125 651.906C497.807 651.928 493.246 652.419 491.245 651.244C489.938 650.477 489.544 649.584 489.08 648.248C489.131 646.829 489.185 645.856 490.302 644.792C491.552 643.6 493.461 643.503 495.087 643.429C502.26 643.105 509.639 643.501 516.827 643.54L557.334 643.586Q638.163 643.818 718.99 643.238Z"/>
</svg>
